<svg width="21" height="23" viewBox="0 0 21 23" fill="none" xmlns="http://www.w3.org/2000/svg">
<path fill-rule="evenodd" clip-rule="evenodd" d="M1.37622 21.5039C1.13125 21.8379 1.20343 22.3073 1.53744 22.5522C1.87145 22.7972 2.34081 22.725 2.58578 22.391C4.74019 19.4536 8.03453 17.0278 11.3227 15.2137C14.6073 13.4015 17.8172 12.2371 19.7369 11.7899C20.0966 11.7061 20.335 11.3765 20.3158 11.0201C20.3358 10.6251 20.0434 10.2789 19.6452 10.237C16.0324 9.8567 12.3797 8.18334 9.25393 6.2027C6.13436 4.22603 3.60002 1.98194 2.23425 0.53583C1.94984 0.23469 1.47516 0.221129 1.17402 0.505537C0.872883 0.789946 0.859322 1.26463 1.14373 1.56576C2.59205 3.09928 5.22238 5.42394 8.45107 7.46976C10.8753 9.00582 13.6711 10.4066 16.583 11.1827C14.804 11.8219 12.7107 12.7348 10.5981 13.9003C7.21343 15.7677 3.71068 18.321 1.37622 21.5039Z" fill="black"/>
</svg>
