<svg width="17" height="20" viewBox="0 0 17 20" fill="none" xmlns="http://www.w3.org/2000/svg">
<path fill-rule="evenodd" clip-rule="evenodd" d="M15.8482 2.13523C16.0932 1.80122 16.021 1.33186 15.687 1.08689C15.353 0.841922 14.8836 0.914102 14.6387 1.24811C12.9108 3.60398 10.2624 5.55659 7.60832 7.02085C4.95777 8.48318 2.37014 9.42108 0.829741 9.77997C0.472184 9.86328 0.234489 10.1895 0.250519 10.5435C0.235003 10.9351 0.526131 11.2767 0.921474 11.3183C3.81697 11.6231 6.75396 12.9662 9.27652 14.5645C11.7928 16.159 13.8364 17.9689 14.9347 19.1319C15.2192 19.433 15.6938 19.4466 15.995 19.1622C16.2961 18.8778 16.3097 18.4031 16.0253 18.1019C14.8444 16.8516 12.7048 14.9611 10.0794 13.2975C8.22722 12.1239 6.10294 11.0439 3.87955 10.3921C5.23346 9.88284 6.77716 9.19255 8.33292 8.33422C11.0835 6.81672 13.9403 4.73657 15.8482 2.13523Z" fill="#B48B34"/>
</svg>
