<svg width="44" height="45" viewBox="0 0 44 45" fill="none" xmlns="http://www.w3.org/2000/svg">
<path d="M6.64708 35.9987L6.43082 35.4947C7.04193 35.7954 7.26098 36.1893 7.11867 35.6726C7.00147 35.7545 6.85776 35.7037 6.70149 35.5837C6.54662 35.4637 6.37222 35.2815 6.21596 35.0839C6.0569 34.8891 5.89645 34.6956 5.74437 34.5686C5.60066 34.4359 5.46253 34.3681 5.33557 34.4373L5.23372 34.0843C5.28534 34.1676 5.32301 34.162 5.37324 34.2453C5.21139 33.545 4.75097 34.0716 4.34356 33.2838C4.22078 32.9987 4.19427 32.7699 4.35193 32.9154L3.89569 32.3972C3.80919 32.2193 3.91802 32.2151 4.00592 32.3902C3.82593 32.0965 3.66548 31.7916 3.49247 31.4923H3.51061C3.36272 31.4019 3.106 31.1492 2.98322 31.0235C2.94973 30.7468 3.09204 31.121 3.12971 31.0292C3.01112 30.8725 2.88555 30.7172 2.76975 30.5548C2.79486 30.4151 2.88415 30.4461 2.98322 30.5548C3.08786 30.6621 3.20506 30.8485 3.27621 31.0334C3.4255 30.6706 3.34597 30.5816 3.20785 30.4292C3.07949 30.2739 2.88555 30.0536 2.83951 29.4578C2.92043 29.6188 3.01252 29.7741 3.09762 29.9322C3.18831 29.7106 3.15901 29.5214 3.12413 29.2997C3.08925 29.0781 3.02926 28.8324 3.03065 28.5204C3.00275 28.6023 2.97624 28.9242 2.91904 29.1642C2.86044 29.4042 2.76975 29.5609 2.60371 29.2898C2.58976 29.1091 2.53256 28.8861 2.32188 28.6009C2.51442 28.5374 2.37908 28.2395 2.2577 27.8484L2.52419 27.8046C2.42513 27.6056 2.35257 27.5209 2.27863 27.4587C2.20468 27.3966 2.12934 27.3571 2.04144 27.2441C1.95633 26.7557 2.13631 26.6145 2.29118 26.4677C2.24514 26.0822 2.18654 26.2291 2.11399 26.3618C2.04144 26.4945 1.95493 26.6159 1.8489 26.1599C1.84611 25.9933 1.83076 25.8422 1.80704 25.6968C1.7889 25.55 1.76379 25.4088 1.72751 25.2648C1.65775 24.9754 1.54334 24.6747 1.44149 24.285C1.49869 23.8163 1.61031 24.3528 1.67449 24.1805L1.43033 23.788C1.42754 23.6878 1.4959 23.716 1.53078 23.7302C1.43033 23.3899 1.26011 23.7175 1.17221 23.1697C1.02571 23.0991 1.1178 22.8111 1.22383 22.4638C1.27964 22.2901 1.33406 22.1009 1.35499 21.9132C1.37731 21.7254 1.35917 21.5376 1.2922 21.364C1.3801 21.203 1.44986 21.4543 1.55729 21.4092C1.48195 20.9447 1.45684 20.7414 1.42196 20.5592C1.38847 20.3771 1.35359 20.2162 1.25453 19.8138C1.33964 19.6049 1.42335 19.3973 1.52241 19.194C1.24058 19.6345 1.11222 18.9964 1.01595 18.4105C0.890376 18.563 0.780153 18.6971 0.722948 18.7888L0.729924 18.3357C0.729924 18.1846 0.746667 18.0349 0.755039 17.8839C0.82201 17.7879 0.891771 17.8966 0.968508 18.0618C0.960137 17.9982 0.951766 17.9375 0.941999 17.8895C1.10943 17.6015 1.22244 17.8006 1.31871 18.0505C1.24337 18.1422 1.16524 18.234 1.0871 18.323C1.20849 18.57 1.3508 18.7987 1.51265 18.7846C1.49172 18.7239 1.48474 18.6138 1.49032 18.4938C1.52381 18.5573 1.5559 18.5997 1.58659 18.5799C1.62147 18.5573 1.57264 18.4571 1.53916 18.306L1.87401 18.1804L1.76937 18.1084L1.98423 17.5874C2.0526 17.4138 2.14189 17.2472 2.21863 17.0777C2.20049 16.8674 2.1698 16.6584 2.14329 16.4424C2.12376 16.2292 2.10562 16.009 2.09725 15.7746C2.09306 15.6575 2.09167 15.5361 2.09446 15.4104C2.09864 15.2848 2.11399 15.1577 2.13073 15.025C2.14887 14.8909 2.17259 14.7525 2.20189 14.6071C2.23258 14.4617 2.26746 14.3092 2.32188 14.1553C2.39164 14.5379 2.62185 14.36 2.85346 14.48C2.65673 14.5831 2.59953 14.8287 2.54651 15.1153C2.5214 15.2579 2.49489 15.4104 2.46698 15.5685C2.44047 15.7266 2.40141 15.8848 2.33723 16.0358C2.47256 15.721 2.56604 15.8339 2.5786 15.9299C2.61348 15.5332 2.69022 15.1464 2.75161 14.7483C2.84509 14.8019 2.90369 14.7596 2.96368 14.672C3.02368 14.5859 3.09344 14.4588 3.19529 14.3388C2.95671 14.3586 2.98182 14.1313 3.0767 13.8348C3.10041 13.7614 3.12832 13.6824 3.15901 13.6033L3.25947 13.3689C3.32505 13.2136 3.38365 13.0654 3.40876 12.9426C3.54689 12.9821 3.62223 13.1515 3.33063 13.6527C3.61665 13.4381 3.59851 13.2023 3.57758 12.9567C3.55247 12.711 3.54131 12.4654 3.81338 12.2564C3.7464 12.3821 3.6892 12.4386 3.72408 12.5233C3.75199 12.3482 3.88872 12.0941 4.01847 11.9134C4.15102 11.7341 4.28636 11.6367 4.28496 11.7482L4.21102 11.8696C4.34775 11.6776 4.51099 11.4305 4.67702 11.1637C4.84724 10.8997 5.0342 10.6244 5.19046 10.3561C5.34952 10.0907 5.5002 9.84931 5.5895 9.64177C5.67879 9.43706 5.71786 9.2747 5.67461 9.19141C5.71507 9.214 5.92296 9.56271 5.94668 9.65448C5.99272 8.97258 6.06248 8.26668 6.18387 7.56501C6.24107 7.72878 6.50198 7.83043 6.69452 7.98149C6.88566 8.13256 7.00984 8.33162 6.80893 8.67186C6.90101 8.60551 7.00286 8.53209 7.11169 8.42339C7.22191 8.31468 7.33353 8.16644 7.46747 7.96879C7.32795 8.03938 6.88287 7.91796 7.01263 7.74996C7.3419 7.6709 7.44376 7.6356 7.55398 7.58336C7.60839 7.55654 7.66699 7.5283 7.7535 7.48736C7.84139 7.44642 7.9558 7.39418 8.13858 7.33489C7.92371 7.43512 7.79256 6.90852 8.08137 6.67557C8.08556 6.76875 8.41204 7.01864 8.34647 7.14429L8.53203 6.6671C8.59482 6.50757 8.66737 6.35509 8.73713 6.19697C8.61156 6.40592 8.95618 6.5358 9.19337 6.51886C9.12919 6.51039 9.28127 6.39321 9.46823 6.25344C9.65938 6.11932 9.89238 5.97249 9.9747 5.88355L9.60357 6.01485C10.0361 5.75225 10.1365 5.46001 10.2579 5.1833C10.3165 5.04212 10.3751 4.89952 10.4756 4.75834C10.576 4.61857 10.7128 4.47175 10.9416 4.35033C10.8816 4.49857 10.989 5.02094 11.4578 4.81764C11.4774 4.73575 11.5081 4.59881 11.5541 4.42798C11.6001 4.25856 11.6615 4.05103 11.7522 3.84632C11.9322 3.4369 12.1973 2.96535 12.5935 2.69287L12.814 2.74511C13.0107 2.59687 13.2074 2.4444 13.4139 2.31169C13.2702 2.55734 12.9968 3.00488 12.7093 3.4369C12.5642 3.65008 12.4261 3.88444 12.2908 4.08632C12.1582 4.29104 12.0313 4.47175 11.9252 4.61434C12.3089 4.53528 12.094 4.71034 12.5852 4.44069C12.8168 4.46751 12.4052 4.75693 12.2643 4.83882C12.6591 4.66658 13.0484 4.48869 13.4516 4.34468C13.3679 4.22751 13.5632 4.0595 13.7641 3.89432C13.9692 3.74043 14.1827 3.59219 14.1157 3.49054C13.7055 3.74749 13.3205 4.04962 12.934 4.32915C12.8475 4.21339 12.9465 3.94656 13.1851 3.66137C13.3051 3.5216 13.4558 3.3663 13.64 3.24348C13.8241 3.12065 14.0348 3.01053 14.2594 2.93429C14.5217 2.95123 14.2692 3.47501 14.3236 3.55549C14.3627 3.49054 14.5483 3.35501 14.745 3.26324C14.9417 3.16865 15.1412 3.09524 15.1914 3.115L14.8678 3.38607C15.1287 3.3536 15.2961 3.19689 15.4858 3.05288C15.6756 2.9117 15.8946 2.80158 16.2281 2.84394C16.3341 2.82558 16.5085 2.86229 16.6592 2.90041C16.8085 2.9357 16.9299 2.95406 16.9285 2.86794C16.5197 2.62934 16.1904 1.67496 16.376 1.38131C16.4179 1.38272 16.729 1.38978 17.0597 1.40954C17.142 1.41519 17.2271 1.41943 17.308 1.4279C17.3903 1.43778 17.4713 1.45049 17.5452 1.46178C17.6931 1.48578 17.8159 1.51261 17.8856 1.54084C18.0879 1.63402 17.9763 1.80767 17.8633 1.9785C17.7489 2.14933 17.6331 2.31451 17.8019 2.39498C17.8005 2.31592 17.9763 2.18745 18.0531 2.14227C18.2875 2.16768 18.0014 2.3964 18.4786 2.27357C18.5177 1.97568 19.4776 2.1691 18.6739 2.00109C18.9097 1.92909 19.0395 1.92768 19.1804 1.93332C19.3213 1.94038 19.4734 1.94744 19.7566 1.92344C19.6576 1.83732 19.7706 1.66932 19.9743 1.50837C20.178 1.35025 20.4724 1.18224 20.7221 1.1413C20.6956 1.21472 20.8114 1.3079 20.8672 1.35025C21.1212 1.35025 21.3472 1.35731 21.5551 1.3686C21.7644 1.38696 21.9555 1.41237 22.1453 1.43496C22.335 1.45613 22.522 1.47872 22.7201 1.50131C22.9182 1.52955 23.1275 1.55496 23.3619 1.57331C23.4442 1.64814 23.8837 1.77097 23.6814 1.87685C23.8195 1.84156 23.9521 1.76108 24.2395 1.79073C24.7585 2.1098 23.6005 1.74697 23.9842 2.09992C24.0372 1.94179 24.7474 1.95168 25.1673 1.93474C25.1269 1.7992 24.8939 1.73426 24.6176 1.73285C24.34 1.73002 24.0232 1.76955 23.8153 1.79497C23.8335 1.61708 24.0302 1.45755 24.3553 1.34037C24.5171 1.28248 24.7139 1.22742 24.9315 1.2006C25.1492 1.17519 25.392 1.16389 25.6501 1.16813C26.0575 1.19213 26.1286 1.28248 26.1203 1.34037C26.1105 1.40249 26.0212 1.45049 26.0938 1.4406C26.4579 1.54084 26.7258 1.5719 26.9434 1.57049C27.1597 1.57896 27.3257 1.55214 27.4834 1.52814C27.6411 1.50555 27.7917 1.48578 27.9745 1.51119C28.1573 1.5352 28.368 1.6199 28.6498 1.78226C29.0516 2.16062 28.5228 2.2171 28.5759 2.4091C28.2564 2.34557 28.0345 2.22839 27.8364 2.11686C27.6355 2.01239 27.4611 1.90368 27.249 1.8472L27.7401 2.09992C27.5197 2.11545 27.0927 2.05192 26.8848 1.92344C26.9713 2.00109 27.1639 2.0858 27.4192 2.17615C27.5476 2.22133 27.6927 2.26792 27.8462 2.31733C27.9996 2.3724 28.1629 2.43028 28.3317 2.49099C28.5005 2.55169 28.6749 2.60958 28.8479 2.67734C29.0195 2.74935 29.1898 2.82135 29.3558 2.89617C29.5204 2.97241 29.6837 3.04018 29.8288 3.12347C29.9753 3.20536 30.1106 3.28724 30.2306 3.36772C30.4455 3.38183 30.7985 3.45666 30.6868 3.3056L30.3436 3.18277C30.112 2.875 31.0761 3.23924 30.6896 2.96818C30.945 3.00771 31.21 3.06418 31.4933 3.14748C31.6342 3.18983 31.7793 3.24207 31.923 3.31124C32.0639 3.38607 32.2062 3.47643 32.3458 3.58655L32.3304 3.87738C32.3555 3.80538 32.0109 3.51172 31.803 3.4849C31.9565 3.50607 32.1476 3.71926 32.3499 3.90561C32.4518 4.00021 32.5578 4.08633 32.6653 4.14421C32.7699 4.20492 32.8787 4.23456 32.9904 4.20633C32.8843 4.06797 32.7797 3.92256 32.6667 3.79126C32.9178 3.85902 33.2024 3.93526 33.4954 4.03268C33.6405 4.0835 33.7898 4.13715 33.9252 4.21621C34.0605 4.29386 34.1916 4.38422 34.3074 4.49434C34.2182 4.11597 34.1749 4.43222 33.9712 3.92256C34.0968 4.44492 32.6081 3.02324 32.9332 3.69667C32.8257 3.42984 32.6681 3.29854 32.4937 3.16159C32.3193 3.02465 32.1295 2.88206 31.923 2.61381C31.9007 2.69852 32.0388 2.85806 31.5826 2.57428C31.5505 2.58558 31.4849 2.58699 31.4444 2.58699L31.4151 2.5644L31.4375 2.58699C31.411 2.58699 31.4082 2.58981 31.4458 2.59546C31.5421 2.68723 31.6133 2.77476 31.6286 2.83688C31.4654 2.86511 31.2031 2.77476 30.9366 2.68864C30.6687 2.60534 30.405 2.51075 30.2571 2.49805C29.9892 2.33145 30.4148 2.46275 30.2962 2.30745C30.1483 2.29333 29.999 2.28345 29.8483 2.28063C29.8846 2.09003 29.1856 1.67638 29.9209 1.85003L29.2986 1.59308C29.1326 1.46884 28.9191 1.36437 28.707 1.27401C28.4935 1.18789 28.2829 1.12013 28.1099 1.11165C27.8141 0.98318 27.2811 1.09189 27.5866 1.02553C27.4122 0.997298 27.2392 0.964827 27.0634 0.939414L26.5374 0.877295V0.829294C26.0365 0.688113 25.4924 0.683878 24.9469 0.62317C24.3944 0.592111 23.8391 0.504579 23.2586 0.299867C23.0829 0.311162 22.9043 0.322456 22.6978 0.322456C22.4913 0.330927 22.2555 0.32528 21.9639 0.291396L21.8523 0.123392C21.6262 0.140333 21.2886 0.112097 20.9816 0.092332C20.6747 0.0739785 20.397 0.0655077 20.3064 0.162922C20.1794 0.0612723 19.9757 0.0160946 19.7315 0.00338833C19.6087 -0.00225889 19.4762 -0.000847082 19.3381 0.00762374C19.1999 0.0189182 19.0562 0.0429188 18.9097 0.0655077C18.6181 0.116333 18.3168 0.167158 18.0419 0.232101C17.767 0.295632 17.5159 0.34928 17.315 0.36481L17.3261 0.580816C17.2592 0.592111 17.1922 0.603405 17.1252 0.616111L16.9271 0.666936C16.796 0.703643 16.6634 0.743174 16.5281 0.78694C16.3927 0.830705 16.2546 0.878707 16.1109 0.930943C15.9672 0.986004 15.8207 1.05236 15.6644 1.11871L15.7537 1.28954C15.4984 1.44625 15.1329 1.50414 14.7296 1.59731C14.5273 1.63967 14.3125 1.68202 14.0934 1.73426C13.8771 1.79214 13.6609 1.86556 13.4488 1.9545C13.4795 1.86415 13.7041 1.79497 13.8716 1.7752C13.58 1.7752 13.3037 1.85003 13.04 1.96015C12.7805 2.07733 12.5363 2.23969 12.2977 2.39922C12.0564 2.55311 11.8345 2.73382 11.6029 2.87359C11.3713 3.01477 11.1327 3.12065 10.883 3.18136C10.703 3.3663 10.537 3.43548 10.3626 3.48207C10.3821 3.47078 10.3988 3.45666 10.41 3.44254C10.3863 3.45384 10.3542 3.47219 10.3207 3.49196C10.2091 3.51737 10.0933 3.5456 9.9747 3.58796C10.0863 3.57102 10.1882 3.54702 10.2733 3.52019C10.11 3.62043 9.88261 3.80396 9.66914 3.99597L9.45707 3.8915C9.43893 3.90703 9.42358 3.91691 9.40544 3.93244C9.12779 4.02279 9.27011 4.13433 9.47939 4.18233C9.37615 4.28539 9.29662 4.39833 9.24081 4.49716C9.05664 4.42798 8.9213 4.55928 8.77759 4.6934C8.70504 4.76117 8.63109 4.82893 8.54598 4.87411C8.46227 4.9207 8.37019 4.94753 8.25717 4.92635C8.23345 5.05341 7.97394 5.30048 7.73536 5.56166C7.50654 5.83414 7.30005 6.12215 7.36283 6.30568C7.32516 6.27744 7.24842 6.31415 7.36004 6.2125C7.09495 6.38192 6.8452 6.57392 6.71266 6.84075L6.43919 6.74616L6.31362 7.109L6.2034 7.47889C5.80994 7.66807 5.62019 7.73584 5.76251 7.29535C5.64531 7.53113 5.55741 7.68925 5.48625 7.81066C5.41928 7.9349 5.36766 8.01679 5.31743 8.09585C5.22116 8.25538 5.12907 8.39656 4.97699 8.81869L4.87375 8.68033C4.69097 8.92458 4.57238 9.44271 4.35193 9.502C4.18869 9.58954 3.98778 9.80696 3.75199 10.1006C3.69339 10.174 3.632 10.2503 3.572 10.335C3.5148 10.4197 3.4548 10.5086 3.39202 10.6004C3.27063 10.7867 3.14227 10.983 3.00973 11.1877C2.50744 12.0263 1.9926 13.0061 1.51683 13.76C1.81123 13.7035 1.67449 13.8659 1.51265 14.0734C1.35638 14.2838 1.16803 14.5421 1.33127 14.6438C1.18756 14.696 1.03548 14.9036 1.04664 14.6C1.01874 14.7101 0.988041 14.8118 0.954556 14.9064C0.922466 15.001 0.894561 15.0913 0.861076 15.176C0.796895 15.344 0.73132 15.4923 0.67272 15.6335C0.551336 15.9144 0.48576 16.1798 0.555521 16.5243C0.415999 16.5921 0.445298 16.29 0.354609 16.3605C0.358794 16.4382 0.372747 16.6655 0.280662 16.7389C0.189972 16.8095 0.223457 16.585 0.213691 16.4311C0.155091 16.657 0.131372 16.8391 0.134163 16.986C0.142534 17.1342 0.174624 17.2457 0.223457 17.3333C0.319728 17.5083 0.478784 17.586 0.633654 17.6566C0.505293 17.8627 0.434136 18.0251 0.411813 18.1804C0.397861 18.3371 0.431346 18.4881 0.510874 18.6703C0.375537 18.8072 0.216481 19.0529 0.276476 18.4867C0.258338 18.5644 0.219272 18.7225 0.173229 18.9159L0.102073 19.2279C0.0825394 19.338 0.0657966 19.4524 0.0504491 19.5639C-0.00954561 20.0129 -0.0332645 20.4294 0.104863 20.459C0.0295207 20.5522 0.0518444 20.9009 0.0755632 20.9856L0.030916 21.4162C0.0197542 21.5334 0.0169637 21.6294 0.0113828 21.7254C0.00161621 21.9174 -0.00256947 22.108 0.00161621 22.4581L0.0504491 22.2647C0.360189 22.5428 0.121606 22.8421 0.174624 23.404L0.141139 23.3899C0.086725 23.7146 0.0853298 23.9109 0.0895155 24.0436C0.0950964 24.1763 0.113234 24.2441 0.129977 24.3118C0.14672 24.3796 0.163463 24.4459 0.163463 24.5772C0.163463 24.6422 0.159277 24.7241 0.153696 24.83C0.150905 24.9358 0.142534 25.0643 0.129977 25.2281L0.321123 25.1349C0.542964 25.1688 0.513664 25.4497 0.462041 25.8182C0.422975 26.1839 0.372747 26.6399 0.519245 26.9872L0.584821 26.7034C0.686673 26.887 0.60854 27.1877 0.503898 27.5039C0.400651 27.8187 0.266709 28.1505 0.302985 28.3566C0.291823 28.4526 0.203924 28.2352 0.148115 28.1195C0.191367 29.2376 0.438322 28.1886 0.713182 28.944C0.621097 29.1275 0.308566 28.8649 0.445298 29.3957C0.434136 29.5426 0.668535 29.8856 0.905723 30.2809C1.03269 30.4758 1.15965 30.6847 1.25593 30.8937C1.30476 30.9981 1.34522 31.1026 1.37452 31.2071C1.40661 31.3087 1.43033 31.409 1.43591 31.5078C1.46939 31.3144 1.50567 31.1252 1.7317 31.4301C1.79867 31.5558 1.8475 31.7153 1.89075 31.8918L1.95633 32.1657L2.03586 32.4424C2.15027 32.8081 2.287 33.161 2.57162 33.2951C2.58139 33.3728 2.57023 33.4109 2.54791 33.4264C2.62046 33.5097 2.70975 33.6241 2.80463 33.7497C2.8995 33.8754 3.00135 34.0137 3.11297 34.138C3.33202 34.3907 3.54689 34.6166 3.69478 34.6731C3.59991 34.8566 3.67664 35.0698 3.82175 35.2985C3.96964 35.5272 4.1873 35.7686 4.41751 35.9818C4.64493 36.1964 4.85701 36.4053 4.99653 36.5733C5.13466 36.7413 5.18349 36.8853 5.0621 36.9884C5.21279 37.1522 5.3565 37.3216 5.51276 37.4811L5.98156 37.9541L5.9104 37.9753C6.04853 38.139 6.1727 38.2675 6.29269 38.3635C6.40989 38.4623 6.51593 38.5358 6.6122 38.5922C6.80614 38.7052 6.9638 38.7546 7.12564 38.7955C7.24284 38.9565 7.09634 38.9085 7.06146 38.9226C7.48561 39.3786 7.7228 39.6313 7.99347 39.7979C8.26275 39.9673 8.53482 40.0944 9.04966 40.2567L9.01618 40.4897C9.09012 40.5052 9.20593 40.5956 9.35661 40.7297C9.5059 40.8652 9.70263 41.0276 9.92028 41.2111C10.0305 41.3015 10.1463 41.3975 10.2691 41.4907C10.3947 41.5782 10.5272 41.6657 10.6625 41.7476C10.7993 41.8309 10.9388 41.9085 11.0811 41.9777C11.2234 42.0497 11.3741 42.0977 11.5234 42.1429C11.5025 42.1584 11.4606 42.1824 11.3616 42.1641C12.0229 42.3787 12.6968 42.8629 13.333 43.206C13.9636 43.5589 14.5469 43.7622 14.8985 43.4799C15.1984 43.5237 15.5068 43.5335 15.8081 43.5575C15.2626 43.3698 15.3282 43.302 15.4761 43.2498C15.624 43.1975 15.8514 43.158 15.6449 43.0338C15.8639 43.0733 16.1235 43.2074 16.2644 43.3189C16.4067 43.4234 16.4262 43.5138 16.1556 43.4601L16.0816 43.3994C15.7788 43.7481 17.4322 43.8766 17.3513 44.1208C18.473 44.3397 19.5892 44.5063 20.6998 44.6136C20.9775 44.6347 21.2551 44.6545 21.5314 44.6757C21.8076 44.687 22.0839 44.6898 22.3587 44.6954C22.4955 44.6954 22.6336 44.7025 22.7703 44.6969C22.9071 44.6912 23.0438 44.6842 23.1791 44.6785C23.4512 44.6616 23.7233 44.6573 23.9911 44.622C23.8977 44.5289 23.8056 44.4399 23.7135 44.3411C23.9604 44.3227 24.206 44.2917 24.453 44.2677C24.6553 44.3143 24.7474 44.4738 24.213 44.5303C24.3637 44.5994 24.5841 44.5345 24.7641 44.4427C24.9455 44.3552 25.0822 44.2225 25.085 44.1914C25.6068 44.1604 25.5245 44.2677 25.3473 44.3764C25.1701 44.4851 24.8966 44.5966 25.0571 44.5712L25.4868 44.4696L25.3836 44.4512C25.5482 44.3566 25.6305 44.2761 25.7519 44.2056C25.8119 44.1703 25.8831 44.1392 25.9766 44.1081C26.07 44.0743 26.1872 44.0404 26.3449 44.0079C26.7537 43.9768 26.5905 44.1463 26.7495 44.1223C26.7537 44.1434 26.8095 44.142 26.9923 44.0743C27.3006 44.0023 27.6062 43.919 27.9145 43.8413L27.4834 43.7114C27.6676 43.5957 27.8796 43.5378 27.9857 43.4912C28.0903 43.4389 28.0875 43.4079 27.8406 43.3345C28.2019 43.4446 29.0516 43.2088 29.8344 42.8813C30.0325 42.8079 30.2208 42.7133 30.4008 42.63C30.5808 42.5453 30.751 42.4662 30.9017 42.3956C31.2031 42.2488 31.4277 42.1344 31.5309 42.1203C31.6412 42.013 31.7542 41.917 31.8742 41.8281C31.9914 41.7349 32.1114 41.6445 32.2383 41.5598C32.4923 41.389 32.7769 41.2394 33.0769 41.0488C32.9011 41.1024 32.6722 40.9245 33.1968 40.6238C33.2275 40.7735 33.3085 40.8229 33.4243 40.813C33.5401 40.8031 33.6936 40.7382 33.8554 40.645C34.0186 40.5532 34.1972 40.4445 34.3758 40.3598C34.4651 40.3174 34.5544 40.2822 34.6423 40.2567C34.7274 40.2285 34.8111 40.213 34.8907 40.2144C34.6339 40.2469 34.9702 39.9588 35.2702 39.6793C35.4222 39.5438 35.5548 39.3941 35.6064 39.2995C35.658 39.2035 35.6231 39.1541 35.432 39.1951C35.8464 38.8929 35.5911 39.3362 35.972 39.1795C36.0682 39.0553 36.1798 38.9423 36.2873 38.8209C36.3961 38.7009 36.5119 38.5837 36.6333 38.4666C36.7547 38.3494 36.8844 38.2379 37.0128 38.1207C37.1384 38.0007 37.2681 37.8807 37.4021 37.7593C37.5332 37.6364 37.6727 37.5178 37.8039 37.3894C37.9336 37.2595 38.0648 37.1268 38.1932 36.9898C38.4583 36.723 38.6954 36.4237 38.9159 36.1089C38.8712 36.0453 38.6271 36.1752 38.7401 35.8505C39.0052 35.7192 39.2521 35.5667 39.5103 35.4185C39.5828 35.283 39.5368 35.1644 39.5368 35.0429C39.5368 34.9822 39.5493 34.9201 39.594 34.8538C39.6358 34.786 39.7098 34.714 39.8367 34.6321C39.7433 34.6632 39.6037 34.7084 39.6916 34.5262C40.6502 33.3728 41.292 31.9567 41.8068 30.5167C42.3258 29.0682 42.7249 27.6027 43.2997 26.1387C43.0862 26.5255 43.1211 26.2488 43.1699 25.9368C43.1016 26.1345 42.9913 25.9043 42.8853 25.9283C43.029 25.5246 43.1811 25.1151 43.3136 24.7001C43.1853 24.5702 43.2062 24.2314 43.2271 23.9024C43.2411 23.7386 43.2425 23.5777 43.2271 23.4478C43.2132 23.3193 43.1825 23.2219 43.1169 23.188L43.1546 23.5904C43.0039 23.3165 42.8295 23.4986 42.6342 23.7259C42.4319 23.9546 42.2156 24.2257 42.0175 24.1735C42.0956 24.3217 42.0942 24.4883 42.0565 24.6676C42.0133 24.8469 41.9254 25.0361 41.8445 25.2366C41.7594 25.4356 41.6924 25.6474 41.6436 25.8676C41.5989 26.0879 41.5989 26.3208 41.6826 26.5735C41.5668 26.7585 41.5864 26.3773 41.4761 26.4662C41.6115 26.7302 41.5752 27.0154 41.384 27.5096L41.3561 27.4418C41.338 27.5322 41.3199 27.6183 41.3017 27.703C41.2822 27.7863 41.2585 27.8653 41.2361 27.943C41.1915 28.0983 41.1469 28.2437 41.1022 28.3821C41.0171 28.6616 40.9097 28.9087 40.798 29.1585C40.7422 29.2828 40.685 29.4098 40.6264 29.5397C40.5692 29.671 40.4953 29.8009 40.4255 29.9407C40.2832 30.2202 40.1339 30.5322 39.9358 30.8894L40.166 30.8598C39.9972 31.1718 39.9107 31.2127 39.7991 31.3426C39.9051 31.8438 40.219 30.4447 40.3711 30.9191C40.2302 30.9868 40.0962 31.1619 39.9651 31.3892C39.8339 31.6165 39.6847 31.8847 39.5465 32.1544C39.4126 32.4255 39.248 32.6739 39.1028 32.8688C38.955 33.0608 38.8126 33.1921 38.6703 33.1949C38.3801 33.6481 38.9508 33.1836 38.6578 33.6396L38.4764 33.6933L38.5364 33.898C38.4317 34.0434 38.3173 34.1267 38.2183 34.169C38.1206 34.2114 38.0397 34.2128 37.9936 34.1874C38.0536 34.1253 38.1094 33.9728 38.1541 33.8923C37.9629 34.0363 37.7899 34.3046 37.6476 34.5516C37.5039 34.7973 37.3756 35.0091 37.3114 35.0585C37.4356 34.9385 37.5639 34.8199 37.6867 34.6971C37.589 34.8524 37.4788 35.0062 37.3672 35.1629C37.2528 35.3168 37.1426 35.4806 37.0128 35.6317C36.7561 35.9338 36.5007 36.2515 36.2189 36.5409C36.0822 36.6905 35.9454 36.8388 35.8101 36.987C35.6692 37.1296 35.5311 37.2722 35.3985 37.4162C35.1376 37.7098 34.8697 37.9781 34.6451 38.2647H34.7874C34.6981 38.372 34.6214 38.4609 34.5488 38.5343C34.4749 38.6049 34.4107 38.6614 34.3507 38.708C34.2307 38.8026 34.133 38.8605 34.0298 38.9184C33.9266 38.9748 33.8233 39.0355 33.6824 39.1231C33.5415 39.2092 33.3685 39.3306 33.1369 39.5226L33.1592 39.4788C33.021 39.7019 32.7727 39.9123 32.4909 40.0831C32.6848 39.8247 31.9021 40.2102 32.1686 39.8897C32.0597 39.9913 31.9677 40.069 31.8909 40.1325C31.8156 40.196 31.757 40.2483 31.7109 40.2906C31.6202 40.3767 31.5784 40.4276 31.5519 40.4756C31.524 40.525 31.51 40.5716 31.471 40.6506C31.4319 40.7297 31.3691 40.8426 31.2324 41.0092L30.9994 40.9542C30.9129 41.0784 30.8724 41.1603 30.7887 41.2506C30.7036 41.3396 30.5794 41.4441 30.3101 41.5852C30.7036 41.2577 29.8609 41.5274 30.2878 41.1377C29.9669 41.1899 29.713 41.2831 29.4981 41.3904C29.2804 41.4935 29.0977 41.6022 28.9344 41.7052C28.6093 41.9142 28.3387 42.0511 27.9899 41.9057C27.7876 42.205 28.0596 42.1754 28.354 42.0921C28.6498 42.0173 28.9498 41.8577 28.8158 41.9636C28.9665 41.9791 28.8856 42.0991 28.714 42.2304C28.541 42.3533 28.2759 42.4789 28.0792 42.5241C27.8852 42.5862 27.6787 42.5114 27.4011 42.445C27.263 42.414 27.1081 42.3872 26.9281 42.3872C26.8388 42.3872 26.7425 42.3928 26.6379 42.4083C26.5332 42.4182 26.4202 42.4366 26.2988 42.4662C26.3965 42.445 26.3951 42.4126 26.4914 42.3914C26.2961 42.3801 26.1272 42.4577 25.9445 42.5297C25.8538 42.5664 25.7589 42.6003 25.657 42.6215C25.5538 42.6385 25.4436 42.6399 25.3236 42.6159C25.1171 42.9208 24.7362 42.7062 24.7139 43.0507L25.6124 42.8093C25.3627 42.8982 25.1338 43.062 24.852 43.2003C24.5702 43.3359 24.2297 43.4206 23.786 43.3853C23.8474 43.3091 24.0944 43.1876 24.2632 43.1156C23.9995 43.0465 23.786 43.2512 23.514 43.1679C23.5251 43.0818 23.6005 43.0338 23.7135 42.9914C23.8265 42.9505 23.98 42.9236 24.1474 42.8982C24.3148 42.8728 24.499 42.8488 24.672 42.8079C24.8436 42.7599 25.0055 42.6992 25.131 42.6102C24.9873 42.5622 24.7418 42.6752 24.5534 42.733C24.3651 42.7909 24.2423 42.8121 24.3553 42.6144C24.1893 42.8686 23.9409 42.8855 23.6605 42.894C23.3772 42.8898 23.0647 42.87 22.7368 43.0719L22.7703 42.8672C22.6671 42.9109 22.4494 43.0112 22.2513 43.0098L22.5959 42.7401C22.3308 42.8573 22.0643 42.8163 21.8062 42.7613C21.5467 42.7133 21.2956 42.6215 21.0361 42.678C21.5774 42.6907 21.6388 42.75 21.6207 42.8276C21.6039 42.9081 21.5062 43.0098 21.7392 43.0761C21.3988 43.1509 21.1784 43.134 21.0179 43.0987C20.8575 43.0592 20.757 42.9858 20.6538 42.9067C20.5491 42.8305 20.4431 42.7373 20.2687 42.6667C20.0943 42.5947 19.8543 42.5495 19.4804 42.5382C19.6827 42.5326 20.2282 42.7189 19.9031 42.7881C19.7622 42.7542 19.5976 42.7189 19.4511 42.661C19.3046 42.6046 19.1734 42.541 19.0925 42.4775C18.1047 42.3928 19.2167 42.702 18.7814 42.7697C18.4772 42.4902 18.2819 42.7923 17.8284 42.7923L17.8619 42.5904C17.7238 42.5495 17.615 42.5241 17.5285 42.51C17.4419 42.493 17.3764 42.4874 17.3261 42.4916C17.2243 42.5001 17.1796 42.5424 17.1378 42.5862C17.0555 42.6723 16.9857 42.7585 16.496 42.5636L16.9885 42.3872C16.8099 42.3688 16.6285 42.3575 16.4499 42.3321L16.6132 42.1358C16.3132 42.1415 16.1207 42.1175 15.9379 42.0681C15.7551 42.0187 15.5821 41.9424 15.324 41.8154C15.4049 41.9961 15.1398 42.1443 14.6501 41.9834C14.3641 41.749 14.8957 41.8761 14.2148 41.6375C14.3139 41.6078 14.4185 41.5725 14.5245 41.5796C14.6306 41.5895 14.7422 41.6375 14.8594 41.7758C14.9124 41.7236 15.0519 41.7067 15.1036 41.6544C14.798 41.4144 14.2511 41.2986 14.0083 41.2069C14.0976 41.2506 14.2036 41.3043 14.2497 41.3537C14.0725 41.3325 13.8939 41.3156 13.7167 41.2916L13.1865 41.2041C13.0679 41.0657 13.213 41.0643 13.3539 41.0629C13.1558 40.9923 12.9786 41.0276 12.6954 40.9005C12.8391 40.7876 12.8949 40.6323 13.3205 40.7382C12.9968 40.6662 12.6828 40.5631 12.3633 40.4685C12.3354 40.3753 12.0117 40.0605 12.1526 40.0647C11.9434 39.8854 11.6197 39.7937 11.275 39.6765C11.1062 39.613 10.9332 39.5438 10.7686 39.4605C10.6039 39.3758 10.4449 39.2812 10.3179 39.1456C10.2691 39.1499 10.191 39.1315 10.0528 39.0609C9.92028 38.9536 9.7975 38.8407 9.67612 38.7292C9.55892 38.6106 9.44451 38.4906 9.32034 38.3762C9.19756 38.2604 9.06501 38.1517 8.91851 38.0473C8.7748 37.9386 8.61435 37.8369 8.42599 37.7465C8.37716 37.5701 8.32414 37.4021 8.28368 37.2214C8.03673 37.0294 8.08277 37.203 8.08975 37.3484C8.09672 37.4924 8.06463 37.6054 7.64327 37.2764C7.33911 37.0491 7.33214 36.9545 7.38655 36.8868C7.44096 36.8204 7.55119 36.7809 7.49119 36.6566C7.3126 36.5748 7.05728 36.4689 6.80753 36.298C6.56058 36.1258 6.33455 35.8717 6.20061 35.5343C6.39175 35.6712 6.47407 35.835 6.62894 35.9818L6.64708 35.9987ZM2.60929 29.3026C2.65394 29.3675 2.73068 29.4621 2.78649 29.5567C2.84788 29.6499 2.88834 29.7459 2.85346 29.8193C2.71394 29.7797 2.65673 29.7176 2.63162 29.6329C2.6079 29.5468 2.62046 29.4367 2.60929 29.3026ZM1.66054 17.322C1.69403 17.4519 1.62566 17.6185 1.50428 17.8006C1.52241 17.6523 1.56287 17.4886 1.66054 17.322ZM28.7754 1.54225C28.767 1.54225 28.7628 1.54367 28.7558 1.54649C28.4308 1.35025 28.5452 1.42366 28.7754 1.54225ZM29.466 1.89097C29.5483 1.89238 29.5525 1.86415 29.533 1.82603C29.4646 1.85426 29.3042 1.79356 29.1256 1.70885C29.1591 1.77803 29.2372 1.85003 29.466 1.89097ZM26.8262 44.0418L26.67 44.0234C26.9811 43.8907 26.903 43.9627 26.8262 44.0418Z" fill="black"/>
</svg>
