<svg width="39" height="39" viewBox="0 0 39 39" fill="none" xmlns="http://www.w3.org/2000/svg">
<path fill-rule="evenodd" clip-rule="evenodd" d="M39 19.6186C39 8.78437 30.2687 0 19.5 0C8.73128 0 0 8.78437 0 19.6186C0 29.4099 7.12987 37.5266 16.4534 39V25.2909H11.5009V19.6186H16.4534V15.2953C16.4534 10.3789 19.3656 7.66139 23.819 7.66139C25.9524 7.66139 28.1846 8.04487 28.1846 8.04487V12.873H25.7248C23.3035 12.873 22.5466 14.3849 22.5466 15.9381V19.6184H27.9542L27.0903 25.2908H22.5464V38.9999C31.87 37.5292 38.9999 29.4125 38.9999 19.6184L39 19.6186Z" fill="black"/>
</svg>
