<svg width="65" height="65" viewBox="0 0 65 65" fill="none" xmlns="http://www.w3.org/2000/svg">
<circle cx="32.5" cy="32.5" r="32" fill="white" stroke="black"/>
<path d="M22.3798 40H19.3198L16.6198 26.24L15.7198 40H13.7598L14.6598 26H18.1198L20.8398 39.74L23.5598 26H27.0398L27.9398 40H25.9598L25.0598 26.24L22.3798 40Z" fill="black"/>
<path d="M39.0829 36.46C39.0829 38.22 38.1429 40.08 34.1429 40.08C32.5429 40.08 31.1429 39.8 29.7229 39.02V37.58H30.0429C31.2229 38.08 32.6229 38.38 33.9629 38.38C36.6829 38.38 36.9629 37.28 36.9629 36.48C36.9629 35.06 36.0229 34.3 33.6229 33.36C30.5029 32.12 29.5229 31 29.5229 29.26C29.5229 27.36 30.7229 25.84 34.2229 25.84C35.8829 25.84 37.3429 26.18 38.7629 26.9V28.36H38.4429C37.2829 27.9 35.9029 27.52 34.4829 27.52C32.1829 27.52 31.6429 28.38 31.6429 29.36C31.6429 30.52 32.8629 31.1 34.4029 31.8C37.7829 33.26 39.0829 34.42 39.0829 36.46Z" fill="black"/>
<path d="M49.7738 34.46V33.76H46.7338V32.2H51.7538V40H50.0938L49.7738 36.12C49.7738 37.88 48.6538 40.16 45.7338 40.16C42.2738 40.16 40.8738 36.98 40.8738 33.36V32.74C40.8738 28.86 42.6338 25.84 47.0138 25.84C48.4138 25.84 50.1738 26.16 51.4338 26.84V28.24H51.1138C49.8538 27.72 48.3538 27.46 47.3338 27.46C44.2738 27.46 42.9538 29.82 42.9538 32.9V33.2C42.9538 36.14 43.9738 38.52 46.5338 38.52C48.6138 38.52 49.7138 36.96 49.7738 34.46Z" fill="black"/>
</svg>
