<svg width="65" height="65" viewBox="0 0 65 65" fill="none" xmlns="http://www.w3.org/2000/svg">
<circle cx="32.5" cy="32.5" r="32" fill="white" stroke="black"/>
<path fill-rule="evenodd" clip-rule="evenodd" d="M41.2085 17.1071C43.8742 16.2386 46.5915 15.9755 48.5872 16.5719C48.5961 16.5745 48.6049 16.5773 48.6136 16.5803C48.6971 16.6085 48.7766 16.6519 48.8478 16.7104C48.8771 16.7344 48.9046 16.7606 48.9299 16.7887C48.9401 16.8 48.9499 16.8116 48.9594 16.8235C49.0206 16.9003 49.0646 16.9863 49.0913 17.0763C49.4995 18.3828 49.4391 20.139 49.0791 21.9604C48.7138 23.808 48.022 25.8139 47.0798 27.6564C46.2703 29.2606 45.2395 30.7697 44.0611 31.948C41.7706 34.2386 39.1617 35.5313 36.7471 35.7712L36.7465 35.7713C35.0712 35.9363 33.4816 35.5797 32.2214 34.6634C32.1555 34.7651 32.0837 34.8784 32.0072 35.0029C31.6035 35.6603 31.0696 36.6283 30.5588 37.857C29.5368 40.3158 28.6143 43.8024 28.998 47.9306C29.0364 48.343 28.7331 48.7084 28.3207 48.7468C27.9082 48.7851 27.5428 48.4818 27.5045 48.0694C27.2928 45.7923 27.4517 43.699 27.8041 41.846C27.8052 41.8244 27.8072 41.8026 27.8102 41.7808L27.8102 41.7807L27.8103 41.7805L27.8103 41.7804L27.8103 41.7801L27.8104 41.7798L27.8105 41.7787L27.8123 41.7649C27.8139 41.7517 27.8164 41.7304 27.8195 41.7018C27.8256 41.6445 27.8338 41.5581 27.8415 41.4478C27.8569 41.2267 27.8696 40.9132 27.8585 40.5495C27.8359 39.8096 27.7163 38.9248 27.3696 38.1886C27.2389 37.9229 26.372 36.5732 23.7693 36.4877C23.7587 36.4874 23.7481 36.4868 23.7376 36.486C21.4142 36.3109 19.1058 34.4585 17.7989 32.411L17.7972 32.4083C16.6856 30.6508 16.2224 28.4474 16.2513 26.365C16.2801 24.2879 16.8002 22.2336 17.7639 20.7727C17.8983 20.5689 18.1237 20.4433 18.3678 20.4361C20.0957 20.385 22.2241 20.7185 24.2068 21.5365C26.1894 22.3545 28.0838 23.6818 29.2536 25.6592C29.4645 26.0157 29.3465 26.4757 28.99 26.6866C28.6335 26.8975 28.1735 26.7795 27.9626 26.423C27.0065 24.8068 25.4171 23.6585 23.6347 22.9231C22.3688 22.4009 21.0346 22.0995 19.822 21.9848L27.53 32.045C27.7819 32.3738 27.7196 32.8446 27.3908 33.0965C27.062 33.3485 26.5912 33.2861 26.3393 32.9573L18.458 22.6708C18.0259 23.7233 17.7701 25.0216 17.7511 26.3858C17.7252 28.2564 18.1463 30.1535 19.0641 31.6053C20.2228 33.4196 22.1578 34.8552 23.8356 34.9891C27.0529 35.1008 28.38 36.8355 28.7204 37.5364L28.724 37.5437L28.7239 37.5437C28.7895 37.6825 28.8486 37.8236 28.9018 37.9658C28.9912 37.73 29.0821 37.5017 29.1737 37.2813C29.7191 35.9692 30.291 34.9313 30.729 34.2179C30.8764 33.9779 31.0089 33.7744 31.1202 33.6093C29.9577 32.1506 29.6056 30.2273 29.954 28.2301C30.342 26.0069 31.6113 23.6501 33.7026 21.573C35.7753 19.5077 38.5237 17.982 41.2085 17.1071ZM41.6732 18.5333C43.5672 17.9162 45.3798 17.6633 46.8361 17.7761C46.5474 18.0674 46.2041 18.4138 45.8166 18.8045C44.5797 20.0517 42.8918 21.7516 41.0878 23.5625C37.8142 26.8485 34.1669 30.4913 32.1351 32.4611C31.4128 31.4227 31.1595 30.0483 31.4317 28.488C31.757 26.6241 32.8466 24.5371 34.76 22.6368L34.7609 22.6359C36.6383 20.7651 39.1703 19.3489 41.6732 18.5333ZM36.5994 34.2785C35.2766 34.4088 34.1087 34.1389 33.2001 33.5178C35.2508 31.5288 38.894 27.8899 42.1505 24.6211C43.9555 22.8093 45.6442 21.1085 46.8816 19.8608C47.2541 19.4852 47.5856 19.1507 47.8672 18.8666C47.8997 19.6675 47.8149 20.6206 47.6075 21.6695C47.27 23.377 46.6248 25.252 45.7434 26.9751L45.7415 26.9789C44.9875 28.4737 44.0436 29.8442 43.0005 30.8873C40.9022 32.9856 38.6011 34.0794 36.5994 34.2785Z" fill="#231F20"/>
</svg>
