<svg width="65" height="65" viewBox="0 0 65 65" fill="none" xmlns="http://www.w3.org/2000/svg">
<circle cx="32.5" cy="32.5" r="32" fill="white" stroke="black"/>
<path fill-rule="evenodd" clip-rule="evenodd" d="M29.2181 13.3447C29.58 13.1432 30.0367 13.2733 30.2382 13.6352C32.7646 18.1732 31.2862 21.9478 29.8076 24.3524C31.1797 24.2614 32.6101 24.3111 34.0043 24.6967C35.8631 25.2108 37.6124 26.3093 39.072 28.3561L52.108 20.3607C52.4611 20.1441 52.9229 20.2548 53.1394 20.6079C53.356 20.961 53.2453 21.4228 52.8922 21.6393L28.0203 36.8941C28.3022 37.2777 28.5937 37.6186 28.8934 37.9213L39.5102 31.2841C39.7239 31.1505 39.9904 31.1332 40.2196 31.2379C40.4488 31.3427 40.6101 31.5556 40.6489 31.8046C40.997 34.0382 40.8712 35.7089 40.3957 37.1567C40.0678 38.1549 39.5816 39.0191 39.0219 39.8572C42.0639 39.7381 46.8952 40.3542 49.5372 45.0998C49.7387 45.4618 49.6087 45.9185 49.2468 46.12C48.8848 46.3214 48.4281 46.1914 48.2266 45.8295C47.4203 44.3811 46.3675 43.3808 45.2201 42.6991L35.826 48.9528C35.9981 49.8039 36.3216 50.6995 36.8425 51.6352C37.044 51.9971 36.914 52.4538 36.552 52.6553C36.1901 52.8568 35.7334 52.7267 35.5319 52.3648C33.0058 47.8274 34.4835 44.0532 35.9619 41.6486C34.5941 41.7383 33.1686 41.6877 31.7792 41.3034C29.9315 40.7923 28.192 39.7039 26.7378 37.6807L15.3922 44.6393C15.0391 44.8559 14.5773 44.7452 14.3608 44.3921C14.1442 44.039 14.2549 43.5772 14.608 43.3607L37.7898 29.1425C37.4981 28.7418 37.1959 28.3872 36.8849 28.0736L26.2599 34.7159C26.0462 34.8495 25.7797 34.8668 25.5505 34.7621C25.3213 34.6573 25.1601 34.4445 25.1213 34.1955C24.7732 31.9619 24.8989 30.2911 25.3745 28.8434C25.7023 27.8454 26.1883 26.9814 26.7478 26.1434C25.0886 26.207 22.9007 26.0512 20.8263 25.128C20.7595 25.1081 20.6955 25.079 20.6362 25.0411C18.976 24.2614 17.4017 22.9757 16.2462 20.9002C16.0447 20.5383 16.1748 20.0816 16.5367 19.8801C16.8986 19.6786 17.3553 19.8087 17.5568 20.1706C18.4667 21.8049 19.6904 22.8687 21.0096 23.5481L30.0757 17.979C29.9856 16.8574 29.6424 15.6488 28.9276 14.3648C28.7261 14.0029 28.8562 13.5462 29.2181 13.3447ZM35.6712 47.2539L43.6245 41.9593C41.5232 41.2234 39.3426 41.2831 37.8958 41.446C36.9139 42.8362 35.7188 44.8167 35.6712 47.2539ZM27.8732 24.5557C26.5653 24.7019 24.664 24.7624 22.7639 24.2309L30.0096 19.78C29.7081 21.7478 28.7125 23.3675 27.8732 24.5557ZM26.7996 29.3114C27.1867 28.1329 27.8464 27.1492 28.707 25.9639C30.3803 25.7617 32.0474 25.7117 33.6044 26.1424C34.3083 26.3371 34.9989 26.6326 35.6626 27.0687L26.465 32.8187C26.3445 31.3552 26.4905 30.2525 26.7996 29.3114ZM38.9706 36.6886C38.5833 37.8677 37.9231 38.8518 37.0618 40.038C35.3934 40.2387 33.7315 40.2871 32.179 39.8577C31.4728 39.6623 30.78 39.3655 30.1143 38.927L39.3052 33.1813C39.4257 34.6448 39.2796 35.7476 38.9706 36.6886Z" fill="#231F20"/>
</svg>
