<svg width="36" height="6" viewBox="0 0 36 6" fill="none" xmlns="http://www.w3.org/2000/svg">
<path d="M0.57476 3.1639C0.771085 3.18537 1.09218 3.25469 1.41249 3.25388C7.3262 3.23114 13.2389 3.19975 19.1516 3.16837C23.97 3.14405 28.7885 3.11831 33.6071 3.09257C33.7285 3.09161 33.8782 3.13788 33.9672 3.08521C34.1754 2.95994 34.3538 2.78881 34.546 2.63555C34.3597 2.50302 34.1776 2.26198 33.9878 2.25515C32.3106 2.19383 30.6299 2.17381 28.9511 2.14387C19.7537 1.97892 10.5561 1.81682 1.35742 1.64751C0.924944 1.63973 0.475622 1.61821 0.344992 2.11221C0.276027 2.37333 0.388945 2.68093 0.423975 2.96738C0.425868 2.9875 0.452774 3.00461 0.576291 3.16255L0.57476 3.1639Z" fill="black"/>
<path d="M0.0822372 3.39633C0.110144 3.42657 0.12505 3.45182 0.130042 3.46936C0.129378 3.4823 0.124455 3.49213 0.116594 3.50181C0.100945 3.51975 0.0767032 3.53291 0.0732492 3.54282C0.0678151 3.5339 0.0637769 3.52649 0.0612073 3.51916L0.0394707 3.48347C0.0288237 3.46131 0.0208217 3.44506 0.0185469 3.43197C0.0125283 3.40573 0.0206094 3.39174 0.0311877 3.38652C0.055356 3.37478 0.0956799 3.39269 0.0822372 3.39633V3.39633Z" fill="black"/>
<path d="M0.618784 1.398L0.561317 1.37791C0.684864 1.36419 0.807312 1.37187 0.923341 1.39067C0.822917 1.38125 0.719065 1.38167 0.617324 1.39793L0.618784 1.398Z" fill="black"/>
<path d="M2.36399 1.34689C2.21147 1.49788 1.78814 1.31176 1.50334 1.36159L1.45629 1.39495L1.32963 1.26975C1.67488 1.29596 2.12076 1.38453 2.36399 1.34689Z" fill="black"/>
<path d="M3.21896 1.0316C3.16623 1.09042 3.40186 1.08671 3.02074 1.04723C3.04006 1.04106 3.04612 1.03708 3.05655 1.03332C3.09155 1.03511 3.1383 1.03606 3.21889 1.03303L3.21896 1.0316Z" fill="black"/>
<path d="M3.0567 1.03197C2.88775 1.02335 3.16821 0.982918 3.0567 1.03197V1.03197Z" fill="black"/>
<path d="M3.83149 1.07993L3.61213 1.02295C3.65925 0.988165 3.85543 0.983877 3.78222 0.957251C4.00866 0.990271 3.96154 1.02506 3.83149 1.07993V1.07993Z" fill="black"/>
<path d="M4.03944 1.19538L3.92434 1.17077C3.94425 1.15594 3.9754 1.15177 4.03944 1.19538Z" fill="black"/>
<path d="M3.6822 1.11812L3.92373 1.1705C3.89178 1.19462 3.88777 1.24448 3.81208 1.15193C3.83169 1.19727 3.78422 1.15336 3.68067 1.11947L3.6822 1.11812Z" fill="black"/>
<path d="M3.54392 1.1397C3.4195 1.17054 3.25919 1.1881 3.48002 1.24515C3.05739 1.21642 3.12283 1.10961 3.54392 1.1397Z" fill="black"/>
<path d="M2.4437 1.50678L2.27778 1.54837L2.13579 1.49392C2.20755 1.52047 2.45494 1.45872 2.44377 1.50535L2.4437 1.50678Z" fill="black"/>
<path d="M5.20684 1.02579C5.21981 1.05793 5.13083 1.1106 5.11405 1.15266L4.9523 1.11293C5.03675 1.09149 5.1956 1.07386 5.2083 1.02587L5.20684 1.02579Z" fill="black"/>
<path d="M5.11482 1.15265L5.35745 1.21224C5.13939 1.21541 5.09986 1.18765 5.11482 1.15265Z" fill="black"/>
<path d="M4.07556 1.36558L3.67687 1.2408L4.15293 1.36811L4.07556 1.36558Z" fill="black"/>
<path d="M6.13897 1.03765L6.00253 0.960592L6.24654 1.07891L6.13897 1.03765Z" fill="black"/>
<path d="M6.75781 1.06206C6.65579 0.998201 6.90055 0.959203 6.79292 0.919375C6.96036 0.933647 7.10373 0.989603 7.23128 1.04046C7.09388 1.01056 6.94882 1.01603 6.75774 1.06349L6.75781 1.06206Z" fill="black"/>
<path d="M7.44502 1.11429C7.37713 1.09795 7.3069 1.07004 7.22945 1.04034C7.3018 1.05548 7.37378 1.07775 7.44502 1.11429Z" fill="black"/>
<path d="M5.77408 1.20358C5.7926 1.1845 5.83032 1.1335 5.96729 1.11475L5.8691 1.20414L5.77262 1.20351L5.77408 1.20358Z" fill="black"/>
<path d="M5.86589 1.20661L5.86895 1.2039C5.97281 1.20348 6.04596 1.20293 6.07666 1.20306C6.05033 1.20315 5.98593 1.20415 5.86582 1.20803L5.86589 1.20661Z" fill="black"/>
<path d="M5.74924 1.20371L5.7749 1.20502C5.7654 1.21327 5.75921 1.21587 5.74924 1.20371Z" fill="black"/>
<path d="M4.71613 1.29391C4.85819 1.34694 5.15631 1.40794 4.86597 1.48037C4.76395 1.41651 4.92987 1.37492 4.71613 1.29391Z" fill="black"/>
<path d="M5.62857 1.31606L5.36886 1.33284C5.37448 1.30881 5.4216 1.27402 5.3513 1.24754L5.62857 1.31606V1.31606Z" fill="black"/>
<path d="M5.75451 1.34714L5.62648 1.31611L5.72403 1.30957L5.75451 1.34714Z" fill="black"/>
<path d="M6.99965 1.19163C7.11159 1.2331 7.23265 1.23929 7.37114 1.24779C7.22266 1.26309 7.06877 1.26954 6.92408 1.26788C6.90366 1.23822 6.84051 1.18636 6.99965 1.19163Z" fill="black"/>
<path d="M6.44992 1.20664L6.47536 1.2123C6.45982 1.22025 6.44608 1.22246 6.44992 1.20664Z" fill="black"/>
<path d="M8.7334 1.27167L8.70986 1.28795L8.70464 1.27166L8.73182 1.27304L8.7334 1.27167Z" fill="black"/>
<path d="M6.89787 1.28378C6.78592 1.29952 6.71992 1.27469 6.65699 1.24716C6.73976 1.25854 6.82859 1.26593 6.92355 1.26792C6.9331 1.28128 6.93412 1.28992 6.8978 1.2852L6.89787 1.28378Z" fill="black"/>
<path d="M7.82489 1.16381C7.76691 1.1823 7.70032 1.1975 7.63089 1.21112C7.68793 1.18256 7.80418 1.13986 7.82489 1.16381Z" fill="black"/>
<path d="M6.51253 1.18839C6.51253 1.18839 6.50211 1.18495 6.49456 1.18456C6.53342 1.1647 6.52837 1.17463 6.51253 1.18839Z" fill="black"/>
<path d="M6.51236 1.18814C6.57012 1.20254 6.61423 1.22625 6.6585 1.2471C6.59016 1.23932 6.52788 1.22756 6.47304 1.21331C6.48654 1.20685 6.50163 1.19761 6.5109 1.18807L6.51236 1.18814Z" fill="black"/>
<path d="M9.13927 1.86745C9.12171 1.78216 8.82912 1.69855 8.57466 1.78426C8.32663 1.71581 8.49435 1.43971 8.71418 1.28786C8.72103 1.3254 8.72073 1.35972 8.97533 1.4142C8.88525 1.45967 8.4058 1.51243 8.61954 1.59344C8.95771 1.64361 8.89865 1.56907 9.06319 1.52597C8.9219 1.62891 9.49214 1.68806 9.41553 1.8415L9.11879 1.78201C9.11317 1.80604 9.21928 1.84722 9.13635 1.8673L9.13927 1.86745Z" fill="black"/>
<path d="M8.22419 1.28726L8.11954 1.27476C8.2401 1.26232 8.3266 1.22954 8.48633 1.16618C8.66099 1.21086 8.69737 1.24276 8.70904 1.27196L8.18977 1.27406L8.22565 1.28733L8.22419 1.28726Z" fill="black"/>
<path d="M7.64516 1.2659C7.72515 1.3601 7.97887 1.4031 7.82176 1.50093C7.51232 1.48942 7.60655 1.41985 7.42161 1.37608C7.92016 1.40726 7.27962 1.32162 7.64027 1.27566C7.54321 1.25783 7.4543 1.25186 7.37124 1.24619C7.46094 1.23647 7.54788 1.22374 7.63051 1.20936L7.61855 1.21447L7.61709 1.2144C7.59601 1.2262 7.58835 1.23296 7.61206 1.22702C7.61352 1.22709 7.61935 1.22739 7.62219 1.22897C7.62591 1.24203 7.63408 1.25389 7.64377 1.2644C7.78796 1.24744 7.6669 1.24126 7.62219 1.22897C7.62095 1.22461 7.6168 1.22011 7.61702 1.21583L7.61848 1.2159L8.11709 1.27426C8.01127 1.28459 7.87839 1.28067 7.6437 1.26583L7.64516 1.2659Z" fill="black"/>
<path d="M5.12871 1.68438C5.14385 1.67651 5.14422 1.66933 5.14451 1.66358C5.17632 1.67529 5.18917 1.68315 5.12871 1.68438Z" fill="black"/>
<path d="M5.33404 1.63296C5.29816 1.61969 5.2679 1.58238 5.15055 1.58926C5.0483 1.61551 5.14974 1.63357 5.14383 1.6633C5.07346 1.63825 4.89595 1.592 5.12029 1.55195L5.15471 1.56516C5.35652 1.53684 5.61661 1.4271 5.58219 1.4139C5.52244 1.49524 5.4697 1.55406 5.33404 1.63296V1.63296Z" fill="black"/>
<path d="M6.50374 1.47375L6.91929 1.52644L6.70625 1.60283L6.71749 1.55476C6.4798 1.56981 6.53254 1.51099 6.50374 1.47375Z" fill="black"/>
<path d="M8.78203 1.22699L8.72859 1.12842L8.96697 1.27076L8.78203 1.22699Z" fill="black"/>
<path d="M9.32343 1.24811L9.30427 1.16213L9.44727 1.21698L9.32343 1.24811Z" fill="black"/>
<path d="M29.544 2.60483L29.4201 2.58121C29.4786 2.58852 29.5165 2.59622 29.544 2.60483Z" fill="black"/>
<path d="M30.4286 2.59547L30.4515 2.63698C30.41 2.61468 30.3932 2.59654 30.4286 2.59547Z" fill="black"/>
<path d="M22.6098 1.49695C22.7892 1.42028 22.9898 1.30178 22.9674 1.39648L22.9115 1.48804C22.7867 1.46879 22.6912 1.47679 22.6098 1.49695Z" fill="black"/>
<path d="M31.6983 2.22526L31.6457 2.25261L31.5276 2.16075C31.5792 2.18056 31.6366 2.20208 31.6983 2.22526Z" fill="black"/>
<path d="M31.8145 2.61325L32.0513 2.55811C31.9976 2.57825 31.9221 2.59585 31.8145 2.61325Z" fill="black"/>
<path d="M24.7036 2.53253L24.5597 2.4373C24.7851 2.43728 24.6854 2.4855 24.7036 2.53253Z" fill="black"/>
<path d="M14.8619 1.38138C15.0157 1.34775 15.1392 1.33546 15.2461 1.33234C15.0592 1.38288 14.9091 1.45961 14.8619 1.38138Z" fill="black"/>
<path d="M29.897 3.59001C29.8213 3.57318 29.7899 3.55428 29.7909 3.53416C29.8682 3.54964 29.9129 3.56777 29.897 3.59001Z" fill="black"/>
<path d="M15.6921 1.34085C15.6654 1.3495 15.6388 1.35387 15.6107 1.36101C15.4989 1.34386 15.3856 1.32949 15.248 1.33248C15.3859 1.29518 15.542 1.27311 15.6921 1.34085V1.34085Z" fill="black"/>
<path d="M7.16209 2.69485C7.14864 2.69848 7.13381 2.7006 7.12176 2.70575C7.11801 2.69259 7.13572 2.69206 7.16209 2.69485Z" fill="black"/>
<path d="M2.05781 3.65713C2.10871 3.66259 2.19061 3.66248 2.26807 3.66357C2.2297 3.6702 2.16684 3.66985 2.05781 3.65713Z" fill="black"/>
<path d="M11.5002 1.24694C11.3843 1.23814 11.4816 1.23591 11.5002 1.24694V1.24694Z" fill="black"/>
<path d="M10.9349 1.60435C10.9594 1.61568 10.9778 1.62959 10.9796 1.6513C10.9705 1.62922 10.955 1.61402 10.9349 1.60435Z" fill="black"/>
<path d="M16.8249 1.93928L16.8354 1.93982C16.7998 1.95693 16.8059 1.95434 16.8249 1.93928Z" fill="black"/>
<path d="M11.3245 1.28538C11.3678 1.27462 11.4183 1.26567 11.4731 1.25983C11.4492 1.26725 11.4046 1.27506 11.3245 1.28538Z" fill="black"/>
<path d="M11.3508 1.24225L11.2502 1.25008C11.2363 1.23352 11.2486 1.22406 11.3508 1.24225Z" fill="black"/>
<path d="M11.6602 1.25372C11.5945 1.25037 11.5329 1.25438 11.4741 1.25996C11.4964 1.25394 11.5069 1.24876 11.4997 1.24553C11.5333 1.24724 11.5814 1.2497 11.6602 1.25372V1.25372Z" fill="black"/>
<path d="M16.5637 2.899C16.5562 2.9015 16.5473 2.90392 16.5397 2.90786C16.4223 2.87017 16.4736 2.87567 16.5637 2.899Z" fill="black"/>
<path d="M25.581 2.5155C25.581 2.5155 25.5721 2.51214 25.5676 2.51045L25.5859 2.50702L25.5825 2.51558L25.581 2.5155Z" fill="black"/>
<path d="M25.9901 2.59194C25.8164 2.47292 25.7163 2.48497 25.5835 2.50823L25.7244 2.2422L25.9901 2.59194V2.59194Z" fill="black"/>
<path d="M27.4212 2.5892L27.7107 2.50385C27.3608 2.36869 27.1082 2.4173 27.3791 2.29809C27.4226 2.58927 28.5039 2.32263 28.546 2.61231L28.7364 2.5505C28.6821 2.55346 28.6728 2.53581 28.6185 2.54019C28.9884 2.39887 28.8959 2.7489 29.3734 2.70462C29.5398 2.68165 29.6561 2.63895 29.5423 2.60453L29.9146 2.67504C30.0231 2.66913 29.9964 2.61914 29.8879 2.62504L30.4542 2.64537L30.4503 2.63659C30.5313 2.68221 30.715 2.75167 30.8041 2.78054C30.9482 2.73783 30.7311 2.74963 30.7681 2.7129L31.0819 2.78185C31.2087 2.70536 30.9492 2.63345 30.7321 2.64526C31.0221 2.35251 30.9931 2.71724 31.6236 2.54344L31.327 2.50827C31.5169 2.34202 31.7479 2.40102 32.0823 2.2965C32.0034 2.35112 31.4136 2.5599 31.7551 2.63026C31.8513 2.608 31.9776 2.59728 32.1605 2.65382C32.1613 2.55087 32.3415 2.57438 32.5649 2.58006L32.5485 2.44333C32.7908 2.48145 32.7726 2.55204 32.9157 2.61228C33.1856 2.59745 33.2407 2.49155 33.3039 2.40037C33.7365 2.37668 33.007 2.5726 33.5191 2.59589L33.5854 2.5864C33.6148 2.58361 33.6528 2.58269 33.6865 2.58297C33.758 2.5852 33.7973 2.58864 33.825 2.59005C33.8367 2.59065 33.8469 2.59117 33.8454 2.59109C33.8454 2.59109 33.8456 2.58824 33.8453 2.59395L33.8438 2.62248L33.8447 2.66258C33.8434 2.68826 33.845 2.71409 33.848 2.74142C33.8461 2.77709 33.8554 2.82477 33.8571 2.84775C33.8671 2.90977 33.8773 2.9389 33.8866 2.95797L33.8892 2.96382L33.8891 2.96668L33.892 2.96682C33.4904 2.32835 33.7811 2.79093 33.6905 2.64755L33.6995 2.64229L33.719 2.63327C33.8252 2.5872 33.9602 2.52114 34.156 2.40955C34.3289 2.2038 34.0641 2.37624 34.1112 2.28567L34.2253 2.25573L34.2488 3.02367C34.2092 2.97015 34.1796 2.91857 34.1572 2.87165C34.108 2.83195 34.1017 2.87025 34.0963 2.89C34.0347 2.80675 34.0566 2.77926 34.0729 2.74719C34.0876 2.71647 34.1013 2.67854 34.0363 2.60513C34.0546 2.53311 33.9536 2.5065 33.8468 2.56398C33.7957 2.59141 33.664 2.62188 33.5523 2.63191C33.4377 2.64323 33.3241 2.63456 33.2228 2.58505C33.1317 2.62188 33.2637 2.67011 33.2347 2.72298C32.7365 2.59884 32.8079 2.63253 32.4009 2.47155L32.0471 2.55362C32.308 2.4568 31.9827 2.32718 31.6957 2.22097C31.7888 2.1728 31.8685 2.13109 31.9206 2.1123L31.4613 2.02876C31.4046 2.05019 31.4504 2.0983 31.5249 2.15647C31.4934 2.14484 31.4648 2.13194 31.4419 2.12219C31.2757 2.16949 31.3593 2.24957 31.4751 2.32987C31.532 2.30417 31.589 2.27703 31.6431 2.24833C31.7542 2.33411 31.8591 2.42815 31.833 2.50836C31.8031 2.49253 31.7469 2.47678 31.683 2.4678C31.7125 2.49076 31.7305 2.51171 31.7166 2.5253C31.7013 2.53883 31.6532 2.50776 31.579 2.47107L31.4704 2.62145L31.4472 2.56018L30.8419 2.64228C30.4145 2.47884 30.0449 2.24396 29.3601 2.16608C29.5282 2.28195 29.3931 2.34944 29.3994 2.4828C29.5892 2.34658 29.9281 2.55414 30.283 2.53364C30.0982 2.54423 30.1373 2.60916 30.1829 2.63152L29.5541 2.48926C29.566 2.59859 29.4184 2.56817 29.2526 2.60833C29.3819 2.39607 28.7837 2.45422 28.527 2.38532C28.5101 2.45741 28.5706 2.53203 28.8857 2.5195C28.5355 2.67471 28.4413 2.25935 28.0997 2.39068C28.177 2.39463 28.2185 2.38387 28.2473 2.4211C28.0694 2.35337 27.6299 2.39673 27.7319 2.46202L27.8077 2.46589C27.298 2.48135 26.256 2.43816 26.1836 2.25421C26.178 2.27825 26.2469 2.47488 26.2771 2.51219L25.3778 1.88263C25.456 2.04111 25.1417 2.40844 25.5624 2.5043C25.4415 2.52387 25.2896 2.54759 25.0353 2.4874C25.1183 2.46589 25.2456 2.26497 25.1324 2.24775C24.8196 2.4163 24.9158 2.33682 24.5298 2.47875C24.6542 2.44791 24.5207 2.19934 24.3245 2.20363C24.3548 2.24094 24.3048 2.4458 24.3751 2.47228L23.8907 2.22296C24.0111 2.26917 23.9094 2.42705 23.7978 2.4943C23.8499 2.44832 23.3753 2.49132 23.2464 2.46615L23.4538 2.4138C22.9026 2.44001 22.916 2.0659 22.3689 2.06801C22.4336 2.11852 22.5271 2.37792 22.2494 2.40236C22.1242 2.27724 21.6954 1.79902 21.2138 1.69432L21.1196 1.76247L20.7497 1.67492C20.9783 1.8654 21.6187 2.26716 21.9704 2.42531C21.7629 2.47766 21.912 2.50815 21.6026 2.49522C21.4926 2.55969 21.7699 2.59817 21.8603 2.60422L21.1408 2.63328C21.1745 2.48909 20.5929 2.47942 20.6225 2.35934L21.4009 2.52211C21.4346 2.37935 20.9558 2.10457 20.446 2.12145C20.316 2.17632 20.5381 2.37935 20.5269 2.42741C20.4622 2.3769 20.0452 2.32414 19.9981 2.35893L20.2133 2.44001C19.9285 2.48841 19.754 2.24061 19.411 2.37186C19.2936 2.37874 19.0566 2.55117 19.0376 2.4658C19.2316 2.30548 19.2781 1.79718 19.1529 1.67205C19.1114 1.68281 18.5327 1.81776 18.397 1.89666C18.2004 2.02252 18.6823 2.20877 18.5159 2.31614C18.5091 2.27717 18.4035 2.22601 18.359 2.20943C18.2346 2.24027 18.4083 2.33211 18.1404 2.30984C18.0982 2.16321 17.5948 2.31202 18.0152 2.18472C17.7529 2.13842 17.7361 2.20909 17.4281 2.19766C17.5279 2.10548 17.1567 1.87195 16.8944 1.82566C16.9085 1.86357 16.8491 1.9106 16.8202 1.93202C16.2818 1.936 15.9921 1.99701 15.4894 1.98851C15.4423 2.0233 15.1991 2.06095 15.3025 2.12631C15.2307 2.09976 15.1646 2.04775 15.0099 2.0427C14.7083 2.1632 15.3551 2.06892 15.1239 2.21589C15.1063 2.13059 14.7252 2.09111 14.5058 2.03413C14.5753 1.90465 15.0155 2.01867 15.2349 2.07565C15.2383 1.89416 14.8579 1.69878 14.3347 1.60626C13.9192 1.55357 14.1519 1.71995 14.0802 1.6934C13.2969 1.71062 13.4184 1.36636 12.7659 1.48467C12.5058 1.59584 12.7498 1.71415 12.6915 1.79558C13.0296 1.84575 13.2139 1.73213 13.4445 1.74105L13.1597 1.79088C13.2673 1.8307 13.4938 1.86372 13.6167 1.83281C13.3981 1.93179 12.2934 1.82961 11.6881 1.91314C11.582 1.87196 11.397 1.82961 11.4856 1.78407L11.6761 1.80381C11.8533 1.71415 11.3189 1.66827 11.5608 1.62912C11.3055 1.55887 11.02 1.45131 10.6579 1.49719L10.5883 1.6281C10.5961 1.58988 10.8261 1.55442 10.9264 1.5953C10.7774 1.53476 10.3694 1.76283 10.2087 1.58869L10.4632 1.50155C10.2065 1.43123 9.89075 1.28636 9.57014 1.32149C9.7185 1.1946 9.64387 1.33813 9.87377 1.18965C9.67413 1.37543 10.6923 1.19712 10.3724 1.38963C10.608 1.21713 10.7781 1.32166 11.0853 1.17713C11.0757 1.22099 10.9759 1.25737 11.2443 1.24104C11.2568 1.25455 11.2853 1.27031 11.3023 1.27976L11.32 1.27638L11.3052 1.28134C11.3165 1.28764 11.3179 1.28914 11.2993 1.28247C11.2354 1.30067 11.1831 1.32231 11.1615 1.34553C11.2937 1.44812 11.7205 1.45132 11.864 1.50585C12.0243 1.48829 11.7978 1.45527 11.8865 1.40973L12.1002 1.49073C12.1227 1.39461 12.5263 1.33797 12.1522 1.27595L12.4899 1.27747C12.6899 1.2276 12.9643 1.21014 13.1316 1.25444C13.2919 1.23688 13.5324 1.36789 13.3945 1.29075L13.9233 1.35924L13.9289 1.33521C14.4526 1.33191 15.0019 1.51445 15.6026 1.35058C15.7781 1.37814 15.9593 1.41027 16.2543 1.38958L16.3126 1.30673C16.5376 1.33967 16.9919 1.23556 17.0883 1.32345C17.3365 1.10438 18.1852 1.29363 18.5846 1.2611L18.598 1.3705C18.8716 1.36873 19.133 1.40497 19.4726 1.45521L19.4501 1.55134C19.7412 1.63486 20.2046 1.49688 20.6673 1.51478C20.637 1.47748 20.5182 1.48428 20.4352 1.50579C20.9928 1.29824 21.6004 1.68402 22.1038 1.53521C22.2276 1.573 22.3188 1.56192 22.4077 1.53928C22.3961 1.53869 22.3859 1.53817 22.3773 1.53344C22.3905 1.53268 22.4096 1.53223 22.4285 1.53319C22.4834 1.5174 22.5414 1.49891 22.6036 1.48491C22.5512 1.50799 22.5006 1.52543 22.4563 1.53318C22.5526 1.5381 22.6981 1.55125 22.8415 1.5786L22.9038 1.47593L22.9374 1.47764C23.0781 1.44334 23.0502 1.53061 22.9732 1.60678C23.0454 1.62477 23.1115 1.64675 23.1614 1.67218C23.278 1.50791 23.5369 1.7357 23.695 1.56067C23.79 1.64849 24.4149 1.63892 24.4874 1.82286C24.493 1.79883 24.5345 1.78807 24.4571 1.78555C24.6174 1.76799 24.7777 1.75042 24.9198 1.80345L24.9893 1.67397L25.3353 1.85614C25.5484 1.77976 25.6369 1.73565 25.4288 1.63061C25.9351 1.79522 25.8408 1.69599 26.2697 1.85808L26.2507 1.77271C26.4054 1.77918 26.6509 1.89614 26.7451 1.82799C27.0937 1.67414 28.4557 1.83524 29.3457 1.70473C29.1693 1.95035 29.7605 1.60146 29.7929 1.79623C29.8456 1.73884 29.97 1.708 29.828 1.65355C30.2808 1.72101 30.512 1.57547 30.8207 1.74572C30.8734 1.6869 30.7258 1.65648 30.7728 1.62312C30.8087 1.63639 30.9163 1.67765 30.9634 1.64286C31.0105 1.60807 30.8987 1.59235 30.827 1.56437C31.291 1.5852 31.3328 1.76758 31.3621 1.9393C31.5984 1.86411 31.7162 1.87728 31.8814 1.993C31.9646 1.9386 32.1019 1.8841 31.8153 1.85658C31.9778 1.85201 32.8069 1.79707 32.8189 1.93358C32.8703 1.90045 33.0459 1.92801 33.0874 1.94586C33.2688 1.94368 33.3683 1.94304 33.4663 1.94232L33.6227 1.94459C33.6854 1.94779 33.7583 1.95151 33.8531 1.95635L33.7898 1.96599L33.7395 1.9763C33.7819 2.03425 33.8465 2.05758 33.9134 2.06386C33.9773 2.07284 34.0527 2.05809 34.1362 2.08239C34.22 2.1024 34.3083 2.14982 34.3948 2.23006L34.3958 2.21008C34.447 2.23987 34.5006 2.27837 34.5303 2.29705L34.611 2.34981C34.6548 2.37923 34.6803 2.39483 34.6986 2.40864L34.9742 2.62441L34.7106 2.83125C34.6511 2.87828 34.6201 2.88527 34.5683 2.92412C34.5152 2.96288 34.4544 3.0356 34.2824 3.22422L34.2498 3.11956C34.2018 3.08564 34.1544 3.09609 34.0998 3.13479C34.0862 3.14411 34.0725 3.15485 34.0572 3.16695L34.0343 3.1858C34.0266 3.19256 34.004 3.20714 33.9905 3.2136C33.9229 3.24877 33.8579 3.25977 33.8004 3.2697C33.7429 3.27964 33.6899 3.28552 33.6471 3.29334L33.5907 3.30906C33.567 3.315 33.5405 3.31937 33.5153 3.32524C33.4135 3.34293 33.3107 3.35055 33.2153 3.32994L33.3514 3.27109C33.1446 3.19616 32.7786 3.57514 32.571 3.60316C32.5261 3.62233 32.6425 3.634 32.7062 3.64726C32.1656 3.77987 32.6355 3.51348 32.2319 3.48429C32.158 3.55776 32.3293 3.66807 32.058 3.68282C31.9233 3.74175 31.2684 3.45083 30.8985 3.59215C30.9804 3.53625 31.0608 3.47885 30.8728 3.43778C30.5857 3.41882 30.0984 3.65286 29.8368 3.47786C29.8009 3.49319 29.787 3.50821 29.7848 3.52241C29.5648 3.47827 29.0705 3.45017 28.9378 3.35614C28.7382 3.71215 27.5717 3.19053 27.5782 3.51845L26.9033 3.50401L26.9206 3.5378C26.4894 3.56156 26.3355 3.4836 26.183 3.40572C26.0838 3.42927 26.1569 3.45875 26.1648 3.47631C25.5338 3.54566 25.4716 3.53247 24.9417 3.37238L24.888 3.47835C24.7449 3.41669 23.9769 3.64926 23.3572 3.52892C23.3639 3.54071 23.376 3.56136 23.4249 3.57673C22.7277 3.4553 21.7598 3.87936 21.5031 3.49433L21.0429 3.40074C21.6368 3.36813 20.9535 3.2331 21.1967 3.16827C20.9623 3.14629 20.5939 3.28769 20.881 3.30664L20.9259 3.28748C21.0325 3.4889 20.1879 3.3628 20.2042 3.49953C19.0345 3.49559 17.8951 3.61336 16.8006 3.62613L16.9256 3.46944L16.5434 3.47996C16.4435 3.51635 16.4098 3.60332 16.6822 3.59577C16.5401 3.68579 16.2238 3.52372 16.2168 3.48904C15.684 3.55481 16.4268 3.67142 16.2628 3.67592L16.0411 3.66459L16.0917 3.64715C15.9107 3.58355 15.8952 3.51553 15.567 3.52595C15.3606 3.55833 15.4611 3.62354 15.3804 3.62943C15.3798 3.64084 15.3533 3.64521 15.2558 3.63451L14.7739 3.64996L14.966 3.5253C14.7526 3.46577 14.5137 3.53368 14.7344 3.39332C14.4103 3.61136 12.9386 3.47899 12.7391 3.54748C12.4394 3.45923 12.1439 3.4613 11.7791 3.47415C11.8697 3.4473 11.9236 3.30844 11.6083 3.32667C11.7252 3.61301 11.0314 3.45456 10.778 3.66192C11.0044 3.52328 9.88159 3.63188 10.2383 3.43552C9.97519 3.46071 10.2225 3.54343 10.0245 3.612C9.39823 3.5042 8.64577 3.69037 7.87097 3.65652C7.85828 3.61868 7.98848 3.56096 7.82169 3.50524L7.41413 3.69614C7.26148 3.67833 7.27173 3.47859 6.9929 3.61169C7.03258 3.57938 7.09056 3.53228 6.98883 3.51993C5.47417 3.71152 3.8896 3.38456 2.35355 3.7367C2.56207 3.66295 2.42205 3.6558 2.2627 3.65481C2.36597 3.6372 2.26016 3.5617 2.2803 3.51123L1.63674 3.65575C1.57614 3.58256 1.41205 3.58849 1.21529 3.57558C1.0288 3.56177 0.863476 3.53473 0.839348 3.4634C0.907171 3.48117 0.97791 3.49909 1.04872 3.51558C0.914766 3.41862 1.02826 3.34431 1.16115 3.2624C1.29696 3.18065 1.43671 3.07907 1.41857 2.97658C1.72375 3.15667 2.21794 2.70269 2.71797 2.96139C2.8284 2.91839 2.6234 2.89505 2.68284 2.84802C2.80994 2.93605 2.96266 2.95243 3.24549 2.91251L3.21297 2.89083C4.00761 2.90851 4.3485 2.82007 5.24082 2.75834L5.1756 2.86087C5.36792 2.84637 5.4076 2.81407 5.49665 2.78857C5.71841 2.94151 4.95791 2.79969 5.15983 2.96878C5.41322 2.76143 6.51305 2.9592 6.68309 2.72328C6.97861 2.7212 6.59804 2.84195 6.89217 2.83838L6.96999 2.77512L7.04481 2.85618C7.23858 2.84176 7.33479 2.76227 7.34195 2.70828C7.29484 2.71446 7.20813 2.6943 7.15868 2.68891C7.40972 2.61304 7.86683 2.71076 7.95289 2.68655L7.67006 2.72647C8.47593 2.78192 9.45883 2.69335 10.2377 2.81895L10.1796 2.86749C10.7748 2.95367 10.6548 2.81307 11.308 2.85072L11.2837 2.83947C11.4144 2.88619 11.5887 2.9094 11.7675 2.90279C11.6022 2.84714 12.0773 2.79273 11.8596 2.73155C12.5042 2.82311 12.179 2.80508 12.6058 2.98136L12.7035 2.90195C12.8489 2.97375 12.8616 3.01159 13.1868 3.02963C12.9197 2.96306 13.3935 2.90714 13.0938 2.81889C13.7756 2.64199 14.1102 2.98952 14.4217 2.73363C14.7366 2.95141 13.8303 2.85793 14.0064 2.90411C13.8593 2.97671 14.2671 3.06762 14.4818 3.04425C14.7 3.03823 14.8517 2.76131 15.4 2.76213C15.3458 2.76365 15.3409 2.74624 15.2867 2.74776C15.4914 2.69098 15.6895 2.82125 15.9413 2.72969C16.0837 2.86141 16.2694 2.72069 16.3104 2.89015L15.8063 2.85297C16.0922 2.89618 16.3614 3.09302 16.8315 2.99401C16.7952 2.96068 16.6542 2.91629 16.5575 2.89133C16.6946 2.84111 16.8234 2.9235 16.9651 2.87066C16.9226 2.70112 16.3526 2.83652 16.0447 2.70922C16.1918 2.63662 16.625 2.82897 16.4691 2.64649C16.6926 2.87963 17.0104 2.61405 17.3831 2.79043L17.3576 2.689C17.4167 2.70489 17.5386 2.7526 17.6469 2.74955L17.4503 2.61935C17.7517 2.73058 18.0302 2.51879 18.3197 2.57791C17.7143 2.57704 18.1847 2.70119 17.9292 2.77684C18.677 2.90944 18.3569 2.50829 19.1925 2.55382C19.0792 2.53945 18.7681 2.61655 18.9456 2.6628C19.1047 2.64089 19.3144 2.60153 19.4107 2.5478C19.964 2.56604 19.3264 2.65221 19.563 2.71436C19.7508 2.58948 19.8354 2.76403 20.0777 2.80215L20.0786 2.6992C20.7081 2.62978 20.2475 2.91381 20.8147 2.8312L20.5734 2.68871L20.8699 2.72387L20.8087 2.60631C21.1319 2.69148 21.231 2.66936 21.5473 2.63401C21.4748 2.70755 21.5903 2.82074 21.8695 2.82355C22.0599 2.76175 21.7619 2.7265 22.1576 2.73813C22.0673 2.67344 21.9691 2.59261 21.7974 2.68969C21.7801 2.65591 21.7086 2.62508 21.6898 2.59265C21.8938 2.52153 22.2055 2.57321 22.3489 2.57337C22.2931 2.57768 22.2284 2.58296 22.194 2.59837L22.7688 2.7393C22.8586 2.69954 22.7871 2.66871 22.7155 2.6393C22.8319 2.64954 22.9129 2.69659 23.0835 2.7053C23.0381 2.62144 23.0484 2.53471 22.8061 2.49659L23.3543 2.58752C23.3913 2.55079 23.6344 2.48596 23.5629 2.45513C23.8652 2.40476 24.3078 2.61476 24.7091 2.54656C24.7302 2.56337 24.7718 2.57837 24.8575 2.5899C25.2359 2.56916 25.5688 2.46457 26.0178 2.57762L26.2713 2.42606C26.6221 2.45828 25.928 2.61738 26.5132 2.67158C26.9276 2.71706 26.666 2.54206 26.8115 2.49942C27.0183 2.57435 27.3761 2.72708 27.7554 2.60198C27.6296 2.57409 27.5304 2.59764 27.414 2.58597L27.4212 2.5892ZM31.7477 2.63274C31.6639 2.6113 31.4962 2.54552 31.4346 2.60674C31.5309 2.72467 31.6041 2.6669 31.7477 2.63274ZM31.0586 2.41016C31.1196 2.44618 31.2169 2.43112 31.327 2.39383C31.2486 2.3841 31.1593 2.38527 31.0586 2.41016ZM12.7581 1.35267C12.7581 1.35267 12.7638 1.35582 12.7666 1.3574C12.9543 1.31977 12.8877 1.33497 12.7581 1.35267ZM12.3686 1.39C12.3299 1.37515 12.3321 1.36096 12.3489 1.34608C12.3753 1.37318 12.4629 1.37622 12.5627 1.36987C12.535 1.39706 12.4843 1.41451 12.3687 1.38857L12.3686 1.39ZM15.3439 3.59896L15.4199 3.57137C15.2488 3.5426 15.2972 3.56939 15.3439 3.59896Z" fill="black"/>
<path d="M31.7977 2.56838C31.8221 2.5509 31.829 2.53252 31.8359 2.5127C31.8688 2.53024 31.8692 2.55187 31.7977 2.56838Z" fill="black"/>
<path d="M24.7316 2.54931L24.718 2.54861C24.7107 2.54387 24.7065 2.53783 24.7037 2.53186L24.7316 2.54931Z" fill="black"/>
<path d="M18.3651 2.3761C18.4453 2.3629 18.4905 2.3436 18.5209 2.32498C18.5254 2.35115 18.4876 2.37083 18.3651 2.3761Z" fill="black"/>
<path d="M10.3136 1.17767L10.562 1.20896C10.4424 1.20285 10.399 1.22352 10.3382 1.23901C10.3438 1.21498 10.3924 1.18027 10.315 1.17775L10.3136 1.17767Z" fill="black"/>
<path d="M8.14324 1.77929C8.10736 1.76602 8.06593 1.77535 8.02998 1.7635L8.04122 1.71544C8.1959 1.7219 8.30354 1.76173 8.14324 1.77929Z" fill="black"/>
<path d="M10.0775 1.51755C10.057 1.60376 9.90073 1.57146 9.72767 1.55261C9.73788 1.55314 9.74808 1.55366 9.75829 1.55418C9.70901 1.4315 9.89396 1.47528 10.0774 1.51898L10.0775 1.51755Z" fill="black"/>
<path d="M9.68784 1.54923C9.63401 1.54362 9.58005 1.54087 9.52724 1.54389C9.50785 1.49427 9.59208 1.53433 9.68784 1.54923Z" fill="black"/>
<path d="M11.8753 1.32466C11.7923 1.34617 11.8255 1.21197 11.7784 1.24676C11.6876 1.13484 12.3267 1.39063 11.8753 1.32466Z" fill="black"/>
<path d="M9.93137 1.8026L9.9958 1.69496L10.0928 1.78492L9.93137 1.8026Z" fill="black"/>
<path d="M11.3092 1.74788L11.0301 1.77225C11.034 1.75385 10.9994 1.7435 10.956 1.73413C11.1271 1.73429 11.3153 1.71528 11.3092 1.74788V1.74788Z" fill="black"/>
<path d="M10.9565 1.73411C10.8673 1.73527 10.7827 1.73095 10.7324 1.71265C10.7805 1.71511 10.8841 1.7204 10.9565 1.73411Z" fill="black"/>
<path d="M10.3112 1.84141L10.3941 1.8199L10.5903 1.81561L10.3112 1.84141Z" fill="black"/>
<path d="M14.3024 1.78064L14.6061 1.81761C14.6364 1.85492 14.5534 1.87643 14.4402 1.85921C14.3684 1.83265 14.2553 1.81543 14.3024 1.78064Z" fill="black"/>
<path d="M13.376 2.05847C13.4595 2.03824 13.4652 2.01404 13.5127 1.979L13.519 2.11331L13.376 2.05847V2.05847Z" fill="black"/>
<path d="M14.262 2.10461C14.2923 2.14192 14.7007 2.21857 14.3169 2.20326C14.2866 2.16595 13.9828 2.13041 14.262 2.10461Z" fill="black"/>
<path d="M18.8409 2.01956L18.7635 2.01561L18.7791 1.79755L18.8409 2.01956Z" fill="black"/>
<path d="M22.8681 2.61413C22.5074 2.66009 22.7844 2.47826 22.4582 2.53741C22.3746 2.48451 22.7253 2.48954 22.6385 2.4422C22.8549 2.50045 22.969 2.47195 22.8666 2.61406L22.8681 2.61413Z" fill="black"/>
<path d="M22.6371 2.44259C22.6022 2.43361 22.5646 2.4216 22.5256 2.40664C22.5881 2.42136 22.6185 2.43299 22.6371 2.44259Z" fill="black"/>
<path d="M1.16734 3.7693C1.07624 3.77753 0.986759 3.78297 0.900262 3.78714L1.0756 3.73315L1.16734 3.7693Z" fill="black"/>
<path d="M0.710308 3.5499L0.636408 3.67916C0.599368 3.63149 0.563785 3.5839 0.532505 3.53796C0.571448 3.54853 0.66662 3.57485 0.711768 3.54997L0.710308 3.5499Z" fill="black"/>
<path d="M32.3883 2.34931L32.4055 2.3831C32.37 2.4199 32.3158 2.42286 32.2072 2.42876L32.3883 2.34931Z" fill="black"/>
<path d="M29.2486 2.47081L29.3032 2.46783L29.2025 2.5938L29.2486 2.47081Z" fill="black"/>
<path d="M26.6116 2.32314C26.7187 2.31716 26.846 2.34512 26.953 2.33914C26.7187 2.31716 26.5831 2.48046 26.6116 2.32314Z" fill="black"/>
</svg>
