<svg width="185" height="185" viewBox="0 0 185 185" fill="none" xmlns="http://www.w3.org/2000/svg">
<g clip-path="url(#clip0_938_1332)">
<path d="M92.5 111.247C70.3936 111.247 52.4077 93.261 52.4077 71.1546C52.4077 49.0481 70.3936 31.0623 92.5 31.0623C114.606 31.0623 132.592 49.0481 132.592 71.1546C132.592 93.261 114.606 111.247 92.5 111.247ZM92.5 33.7444C71.8692 33.7444 55.0898 50.5237 55.0898 71.1546C55.0898 91.7854 71.8692 108.565 92.5 108.565C113.131 108.565 129.91 91.7854 129.91 71.1546C129.91 50.5237 113.131 33.7444 92.5 33.7444Z" fill="#B48B34"/>
<path d="M92.5 113.845C68.955 113.845 49.8091 94.6902 49.8091 71.1545C49.8091 47.6188 68.9643 28.4636 92.5 28.4636C116.036 28.4636 135.191 47.6188 135.191 71.1545C135.191 94.6902 116.036 113.845 92.5 113.845ZM92.5 29.5309C69.549 29.5309 50.8764 48.2035 50.8764 71.1545C50.8764 94.1055 69.549 112.778 92.5 112.778C115.451 112.778 134.124 94.1055 134.124 71.1545C134.124 48.2035 115.451 29.5309 92.5 29.5309Z" fill="#B48B34"/>
<path d="M83.5073 44.7883C83.5073 45.4658 84.0549 46.0226 84.7416 46.0226H99.0338V50.0968H84.7416C84.0642 50.0968 83.5073 50.6444 83.5073 51.3311V70.9411C83.5073 71.3773 83.7393 71.7856 84.1106 71.9991C84.3055 72.1105 84.5189 72.1661 84.7324 72.1661C84.9458 72.1661 85.1407 72.1104 85.3263 72.0084L97.1127 65.4748C97.7067 65.1407 97.9201 64.3982 97.5953 63.8043C97.2612 63.2103 96.5188 62.9969 95.9248 63.3217L85.9667 68.8437V59.0897H100.259C100.936 59.0897 101.493 58.5422 101.493 57.8554C101.493 57.1686 100.946 56.6211 100.259 56.6211H85.9667V52.5469H106.969C107.646 52.5469 108.203 51.9993 108.203 51.3126C108.203 50.6258 107.656 50.0782 106.969 50.0782H101.493V44.7697C101.493 44.0922 100.946 43.5354 100.259 43.5354H84.7324C84.0549 43.5354 83.498 44.083 83.498 44.7697L83.5073 44.7883Z" fill="#B48B34"/>
<path d="M131.228 63.3031L113.892 54.2452L121.799 45.6235C122.133 45.2616 122.217 44.7419 122.022 44.2964C121.827 43.8509 121.381 43.5632 120.89 43.5632H106.969C106.291 43.5632 105.734 44.1108 105.734 44.7976C105.734 45.4843 106.282 46.0319 106.969 46.0319H118.087L110.987 53.7719C110.727 54.0503 110.616 54.4401 110.681 54.8206C110.746 55.2011 110.987 55.526 111.321 55.7023L125.632 63.1825H104.129C103.451 63.1825 102.894 63.73 102.894 64.4168V74.6255H93.7158V72.593C93.7158 71.9155 93.1683 71.3587 92.4815 71.3587C91.7947 71.3587 91.2472 71.9063 91.2472 72.593V74.6255H72.1476C71.4702 74.6255 70.9133 75.173 70.9133 75.8598C70.9133 76.5466 71.4609 77.0941 72.1476 77.0941H112.806C113.484 77.0941 114.04 76.5466 114.04 75.8598C114.04 75.173 113.493 74.6255 112.806 74.6255H105.354V65.6511H130.643C131.21 65.6511 131.701 65.2613 131.841 64.7138C131.98 64.1662 131.72 63.5908 131.219 63.331L131.228 63.3031Z" fill="#B48B34"/>
<path d="M129.901 80.1103H59.3496L81.5303 65.5119C81.985 65.2149 82.1892 64.6488 82.0314 64.1291C81.8737 63.6094 81.3911 63.2474 80.8528 63.2474H63.6094L81.456 53.0573C81.9386 52.7789 82.1799 52.2128 82.0407 51.6745C81.9015 51.1362 81.4096 50.7557 80.8528 50.7557H68.2033L95.1728 33.8371C95.7482 33.4752 95.9245 32.7142 95.5626 32.1388C95.2007 31.5634 94.4396 31.387 93.8642 31.749L63.266 50.9413C62.802 51.229 62.5885 51.7951 62.737 52.3241C62.8855 52.8531 63.3681 53.2151 63.9249 53.2151H76.2125L58.3658 63.4052C57.8833 63.6836 57.642 64.2497 57.7812 64.788C57.9204 65.3263 58.4123 65.7068 58.9691 65.7068H76.7415L55.4703 79.702C55.3125 79.8041 55.1826 79.9433 55.0898 80.1011C54.4123 80.1011 53.8647 80.6579 53.8647 81.3354C53.8647 82.0129 54.4123 82.5697 55.0991 82.5697H129.892C130.569 82.5697 131.126 82.0221 131.126 81.3354C131.126 80.6486 130.578 80.1011 129.892 80.1011L129.901 80.1103Z" fill="#B48B34"/>
<path d="M102.347 85.521H83.1544C79.5349 85.521 76.5187 88.1196 75.8505 91.5534H71.0153C70.3378 91.5534 69.781 92.101 69.781 92.7877C69.781 93.4745 70.3286 94.022 71.0153 94.022H75.7113V96.268C75.7113 100.37 79.0523 103.711 83.1544 103.711H102.347C106.449 103.711 109.79 100.37 109.79 96.268V92.9733C109.79 88.8713 106.449 85.5303 102.347 85.5303V85.521ZM107.321 96.2587C107.321 99.0057 105.084 101.233 102.347 101.233H83.1544C80.4073 101.233 78.18 98.9965 78.18 96.2587V94.0128H99.0799C99.7574 94.0128 100.314 93.4652 100.314 92.7784C100.314 92.0917 99.7667 91.5441 99.0799 91.5441H78.3934C79.0059 89.4838 80.9085 87.9804 83.1637 87.9804H102.356C105.103 87.9804 107.33 90.217 107.33 92.9548V96.2494L107.321 96.2587Z" fill="#B48B34"/>
<path d="M48.8996 142.309H47.359C47.2105 142.309 47.127 142.402 47.127 142.541V148.397H40.7976V142.523C40.7976 142.374 40.7048 142.291 40.5656 142.291H39.025C38.8765 142.291 38.793 142.383 38.793 142.523V156.286C38.793 156.434 38.8858 156.518 39.025 156.518H40.5656C40.7141 156.518 40.7976 156.425 40.7976 156.286V150.402H47.127V156.304C47.127 156.453 47.2198 156.536 47.359 156.536H48.8996C49.0481 156.536 49.1316 156.443 49.1316 156.304V142.541C49.1316 142.393 49.0388 142.309 48.8996 142.309Z" fill="#665F62"/>
<path d="M63.9991 142.309H65.5397C65.6696 142.309 65.7717 142.411 65.7717 142.541V156.304C65.7717 156.434 65.6696 156.536 65.5397 156.536H63.9991C63.8692 156.536 63.7671 156.434 63.7671 156.304V142.541C63.7671 142.411 63.8692 142.309 63.9991 142.309Z" fill="#665F62"/>
<path d="M89.8642 150.272C89.5301 149.669 89.0753 149.167 88.5092 148.778C89.2238 148.026 89.5765 147.135 89.5579 146.114C89.5394 145.065 89.1496 144.165 88.3978 143.423C87.6461 142.68 86.7366 142.309 85.6879 142.309H80.6392C80.4908 142.309 80.4072 142.402 80.4072 142.541V156.304C80.4072 156.453 80.5 156.536 80.6392 156.536H86.0406C87.2006 156.536 88.2122 156.137 89.0475 155.339C89.892 154.541 90.3375 153.557 90.3746 152.416C90.3932 151.645 90.2261 150.922 89.8642 150.263V150.272ZM82.4026 148.045V144.304H85.6879C86.2076 144.304 86.6345 144.49 87.0058 144.861C87.377 145.223 87.5626 145.659 87.5626 146.17C87.5626 146.68 87.377 147.126 87.0058 147.497C86.6345 147.868 86.2076 148.045 85.6879 148.045H82.4026ZM88.3793 152.295C88.3793 152.917 88.1566 153.446 87.7111 153.882C87.2749 154.318 86.7459 154.541 86.1241 154.541H82.3933V150.049H86.1241C86.7459 150.049 87.2749 150.272 87.7111 150.699C88.1473 151.135 88.3793 151.673 88.3793 152.286V152.295Z" fill="#665F62"/>
<path d="M106.161 142.309H104.62C104.492 142.309 104.388 142.413 104.388 142.541V156.304C104.388 156.432 104.492 156.536 104.62 156.536H106.161C106.289 156.536 106.393 156.432 106.393 156.304V142.541C106.393 142.413 106.289 142.309 106.161 142.309Z" fill="#665F62"/>
<path d="M131.191 156.137L123.98 149.372L130.671 142.708C130.745 142.634 130.755 142.541 130.718 142.458C130.68 142.365 130.606 142.309 130.495 142.309H128.323C128.258 142.309 128.202 142.337 128.156 142.383L123.033 147.488V142.541C123.033 142.393 122.94 142.309 122.801 142.309H121.261C121.112 142.309 121.029 142.402 121.029 142.541V156.314C121.029 156.462 121.121 156.546 121.261 156.546H122.801C122.95 156.546 123.033 156.453 123.033 156.314V151.237L128.611 156.471C128.611 156.471 128.694 156.555 128.787 156.555H131.024C131.126 156.555 131.209 156.499 131.237 156.416C131.293 156.323 131.265 156.221 131.182 156.146L131.191 156.137Z" fill="#665F62"/>
<path d="M144.434 142.309H145.975C146.105 142.309 146.207 142.411 146.207 142.541V156.304C146.207 156.434 146.105 156.536 145.975 156.536H144.434C144.304 156.536 144.202 156.434 144.202 156.304V142.541C144.202 142.411 144.304 142.309 144.434 142.309Z" fill="#665F62"/>
<path d="M140.045 115.525C140.267 114.839 140.1 113.261 140.156 112.843C140.091 112.472 140.091 108.453 140.156 104.509C140.202 103.238 139.952 102.031 139.2 101.112C138.513 100.407 137.697 99.8596 136.824 99.5719C135.07 99.377 133.938 99.9431 133.836 100.008C133.65 100.082 133.065 100.528 132.657 101.215C132.147 101.818 131.581 102.718 131.543 103.906C131.636 106.245 131.506 109.047 131.636 111.637C131.516 112.825 131.599 114.217 131.497 115.627C131.497 116.936 132.277 118.588 133.065 119.163C133.994 120.138 135.107 120.212 135.942 120.323C136.676 120.203 137.232 119.804 137.353 119.702C137.641 119.674 138.606 119.386 139.116 118.801C139.673 118.068 139.97 117.001 140.035 116.555C140.258 115.878 139.868 115.794 139.738 115.757C139.571 116.054 139.441 116.073 139.413 116.815C139.284 116.927 139.135 117.558 138.671 118.412C138.133 118.829 137.223 119.609 136.174 119.423C135.061 119.507 134.012 119.302 133.548 118.523C132.824 117.994 132.685 117.316 132.49 117.177C132.397 117.122 132.407 116.964 132.277 116.054C132.147 115.776 132.221 115.182 132.202 114.272C132.277 112.314 132.202 110.532 132.295 108.268C132.295 107.006 132.267 106.105 132.221 105.233C132.221 103.989 132.193 103.247 132.639 102.505C133.186 101.242 134.476 100.583 134.662 100.5C134.847 100.667 135.952 100.166 137.446 100.667C138.105 100.853 138.847 101.576 139.191 102.699C139.506 103.303 139.367 104.565 139.497 105.836C139.432 109.91 139.395 114.514 139.543 114.811C139.386 115.627 139.98 116.231 140.026 115.535L140.045 115.525Z" fill="#A22124"/>
<path d="M136.908 103.052C137 103.071 137.075 103.052 137.13 102.959C137.13 102.941 137.168 102.941 137.195 102.931C137.232 102.931 137.27 102.922 137.316 102.913C137.381 102.978 137.381 103.071 137.39 103.163C137.39 103.293 137.39 103.433 137.409 103.563C137.418 103.646 137.446 103.73 137.483 103.804C137.529 103.943 137.594 104.073 137.65 104.221C137.678 104.175 137.697 104.138 137.715 104.11C137.771 104.11 137.836 104.138 137.891 104.073C137.91 104.054 137.956 104.073 137.956 104.101C137.966 104.147 137.975 104.194 137.975 104.24C137.975 104.305 137.975 104.37 137.993 104.435C138.021 104.537 138.021 104.639 138.031 104.741C138.031 104.778 138.04 104.834 138.068 104.862C138.105 104.917 138.114 104.982 138.151 105.038C138.207 105.14 138.17 105.233 138.133 105.326C138.105 105.4 138.031 105.446 137.947 105.465C137.929 105.465 137.91 105.465 137.891 105.484C137.752 105.53 137.743 105.53 137.632 105.437C137.483 105.317 137.325 105.224 137.158 105.131C137.056 105.075 136.963 105.01 136.898 104.908C136.871 104.862 136.833 104.825 136.796 104.778C136.778 104.806 136.75 104.815 136.741 104.843C136.722 104.88 136.703 104.908 136.694 104.945C136.592 105.205 136.49 105.465 136.379 105.725C136.36 105.762 136.342 105.799 136.323 105.836C136.304 105.883 136.267 105.92 136.286 105.966C136.286 105.985 136.286 106.003 136.277 106.022C136.277 106.031 136.258 106.05 136.258 106.059C136.221 106.18 136.165 106.282 136.082 106.384C136.054 106.412 136.045 106.458 136.026 106.495C135.905 106.69 135.71 106.746 135.506 106.783C135.413 106.792 135.321 106.783 135.228 106.746C135.135 106.718 135.061 106.672 134.959 106.653C134.922 106.653 134.875 106.616 134.857 106.588C134.81 106.514 134.736 106.467 134.671 106.412C134.43 106.245 134.318 106.013 134.272 105.734C134.272 105.697 134.263 105.66 134.253 105.623C134.216 105.4 134.226 105.177 134.272 104.955C134.318 104.75 134.383 104.556 134.476 104.361C134.56 104.203 134.643 104.045 134.717 103.887C134.82 103.683 134.959 103.498 135.089 103.312C135.116 103.266 135.154 103.219 135.181 103.163C135.181 103.154 135.181 103.136 135.181 103.117C135.042 103.145 134.903 103.173 134.773 103.201C134.708 103.219 134.652 103.219 134.597 103.201C134.43 103.145 134.272 103.071 134.133 102.959C133.994 102.848 133.854 102.746 133.715 102.634C133.659 102.597 133.604 102.56 133.548 102.532C133.474 102.495 133.4 102.449 133.353 102.375C133.353 102.365 133.335 102.347 133.325 102.347C133.205 102.263 133.158 102.143 133.112 102.022C133.056 101.864 133.01 101.697 132.954 101.53C132.954 101.511 132.954 101.493 132.954 101.474C132.973 101.474 132.982 101.465 132.982 101.474C133.047 101.511 133.103 101.558 133.186 101.539C133.223 101.539 133.279 101.567 133.316 101.576C133.344 101.586 133.381 101.595 133.409 101.614C133.622 101.725 133.845 101.716 134.077 101.66C134.179 101.641 134.281 101.614 134.383 101.586C134.485 101.558 134.597 101.539 134.699 101.511C134.996 101.409 135.293 101.317 135.59 101.224C135.72 101.187 135.85 101.168 135.98 101.15C136.054 101.15 136.119 101.131 136.193 101.131C136.212 101.131 136.221 101.131 136.239 101.131C136.379 101.15 136.509 101.187 136.62 101.27C136.694 101.326 136.731 101.409 136.722 101.511C136.713 101.595 136.676 101.679 136.676 101.762C136.676 101.836 136.611 101.883 136.592 101.957C136.574 102.022 136.527 102.068 136.49 102.124C136.453 102.18 136.397 102.226 136.332 102.226C136.323 102.254 136.304 102.282 136.304 102.31C136.304 102.337 136.277 102.365 136.249 102.375C136.174 102.402 136.147 102.467 136.11 102.532C135.998 102.746 135.878 102.969 135.794 103.201C135.794 103.219 135.766 103.238 135.757 103.256C135.692 103.358 135.627 103.451 135.562 103.553C135.525 103.609 135.488 103.665 135.46 103.72C135.423 103.795 135.376 103.878 135.349 103.962C135.311 104.11 135.246 104.249 135.2 104.388C135.163 104.518 135.135 104.648 135.098 104.769C135.098 104.797 135.079 104.825 135.07 104.853C135.024 104.973 134.977 105.094 134.94 105.214C134.931 105.242 134.922 105.27 134.922 105.298C134.922 105.465 134.922 105.632 134.968 105.79C134.968 105.827 134.987 105.873 134.996 105.911C135.033 106.078 135.163 106.18 135.339 106.207C135.358 106.207 135.386 106.207 135.404 106.198C135.525 106.17 135.627 106.096 135.72 106.003C135.785 105.929 135.84 105.855 135.896 105.781C135.961 105.678 136.045 105.576 136.082 105.465C136.212 105.289 136.277 105.085 136.351 104.89C136.351 104.871 136.369 104.843 136.379 104.825C136.481 104.639 136.564 104.435 136.648 104.24C136.703 104.119 136.741 103.989 136.787 103.869C136.824 103.757 136.861 103.646 136.898 103.535C136.917 103.47 136.945 103.414 136.945 103.34C136.945 103.284 136.945 103.238 136.917 103.191C136.88 103.145 136.898 103.098 136.935 103.052H136.908Z" fill="#A22124"/>
<path d="M135.757 111.08C135.757 111.08 135.785 111.052 135.794 111.043C135.868 110.913 135.961 110.783 136.017 110.653C136.175 110.291 136.379 109.957 136.527 109.604C136.564 109.521 136.611 109.446 136.648 109.372C136.676 109.317 136.694 109.27 136.676 109.205C136.666 109.15 136.666 109.085 136.676 109.029C136.676 108.982 136.685 108.927 136.713 108.89C136.759 108.815 136.787 108.732 136.806 108.648C136.806 108.611 136.824 108.583 136.843 108.556C136.871 108.518 136.88 108.463 136.898 108.416C136.917 108.314 136.973 108.231 137.038 108.147C137.149 108.166 137.149 108.184 137.14 108.268C137.14 108.296 137.121 108.324 137.121 108.351C137.121 108.389 137.121 108.426 137.121 108.453C137.158 108.574 137.195 108.685 137.233 108.806C137.251 108.871 137.279 108.936 137.325 108.982C137.381 109.047 137.427 109.122 137.483 109.196C137.511 109.233 137.53 109.27 137.53 109.317C137.53 109.484 137.613 109.623 137.734 109.743C137.762 109.771 137.78 109.79 137.799 109.818H137.891C137.91 109.901 137.891 109.985 137.891 110.068C137.891 110.096 137.882 110.115 137.882 110.143C137.882 110.208 137.836 110.235 137.78 110.245C137.697 110.263 137.613 110.245 137.548 110.208C137.418 110.105 137.26 110.059 137.149 109.948C137.066 109.873 136.991 109.808 136.898 109.725C136.88 109.762 136.871 109.79 136.861 109.818C136.843 109.892 136.833 109.966 136.824 110.031C136.806 110.133 136.806 110.235 136.75 110.328C136.75 110.421 136.713 110.504 136.694 110.597C136.676 110.681 136.62 110.755 136.629 110.848C136.592 110.894 136.564 110.95 136.555 111.006C136.546 111.061 136.537 111.108 136.527 111.163C136.518 111.265 136.49 111.349 136.434 111.433C136.397 111.488 136.36 111.535 136.332 111.59C136.295 111.665 136.221 111.702 136.147 111.72C136.091 111.739 136.035 111.757 135.98 111.776C135.785 111.841 135.59 111.822 135.432 111.683C135.376 111.637 135.321 111.59 135.256 111.562C135.135 111.507 135.052 111.414 134.977 111.312C134.866 111.154 134.782 110.969 134.745 110.774C134.718 110.634 134.727 110.495 134.736 110.347C134.736 110.272 134.755 110.189 134.764 110.115C134.792 109.966 134.866 109.846 134.931 109.716C134.987 109.614 135.033 109.521 135.079 109.419C135.079 109.419 135.079 109.4 135.079 109.391C134.968 109.363 134.866 109.326 134.755 109.317C134.634 109.317 134.523 109.261 134.402 109.252C134.318 109.252 134.263 109.187 134.198 109.15C134.142 109.112 134.077 109.085 134.012 109.057C133.845 108.982 133.687 108.89 133.604 108.723C133.567 108.658 133.52 108.593 133.474 108.528C133.437 108.472 133.409 108.416 133.381 108.361C133.428 108.296 133.492 108.277 133.567 108.277C133.687 108.286 133.799 108.286 133.919 108.305C133.984 108.305 134.031 108.296 134.077 108.259C134.179 108.184 134.272 108.101 134.374 108.027C134.588 107.887 134.81 107.795 135.052 107.72C135.256 107.655 135.46 107.59 135.673 107.535C135.803 107.498 135.933 107.479 136.063 107.46C136.137 107.451 136.212 107.451 136.277 107.47C136.332 107.488 136.379 107.516 136.416 107.563C136.434 107.581 136.444 107.609 136.444 107.627C136.434 107.674 136.444 107.702 136.462 107.739C136.509 107.85 136.499 107.971 136.509 108.082C136.527 108.231 136.499 108.37 136.453 108.518C136.453 108.528 136.453 108.546 136.434 108.556C136.36 108.611 136.351 108.713 136.267 108.75C136.165 108.862 136.1 108.992 136.054 109.131C135.998 109.307 135.933 109.484 135.868 109.66C135.84 109.725 135.803 109.79 135.794 109.864C135.776 109.957 135.748 110.05 135.748 110.152C135.748 110.189 135.748 110.226 135.729 110.254C135.646 110.402 135.664 110.56 135.664 110.709C135.664 110.839 135.692 110.959 135.776 111.071L135.757 111.08Z" fill="#A22124"/>
<path d="M138.226 108.63C138.142 108.676 138.049 108.723 137.975 108.769C137.882 108.741 137.817 108.676 137.724 108.667C137.715 108.667 137.697 108.648 137.687 108.639C137.604 108.556 137.53 108.463 137.446 108.379C137.409 108.342 137.381 108.296 137.372 108.24C137.344 108.101 137.298 107.952 137.307 107.804C137.307 107.767 137.307 107.73 137.316 107.692C137.409 107.655 137.474 107.72 137.548 107.739C137.632 107.748 137.715 107.776 137.789 107.795C137.864 107.822 137.929 107.859 137.994 107.887C138.086 107.813 138.17 107.739 138.253 107.674C138.291 107.646 138.328 107.627 138.365 107.609C138.513 107.553 138.662 107.525 138.82 107.544C138.875 107.544 138.922 107.572 138.968 107.59C139.024 107.618 139.07 107.674 139.042 107.748C139.042 107.776 139.042 107.804 139.042 107.832C139.042 107.897 139.005 107.934 138.94 107.915C138.885 107.906 138.838 107.878 138.792 107.859C138.736 107.841 138.671 107.813 138.615 107.785C138.588 107.776 138.55 107.757 138.513 107.757C138.467 107.757 138.43 107.767 138.402 107.804C138.291 107.924 138.226 108.073 138.207 108.231C138.207 108.268 138.207 108.305 138.207 108.333C138.244 108.426 138.235 108.509 138.207 108.62L138.226 108.63Z" fill="#A22124"/>
<path d="M136.425 115.135C136.286 115.238 136.175 115.34 136.026 115.414C135.971 115.442 135.915 115.47 135.85 115.488C135.757 115.516 135.664 115.535 135.581 115.553C135.544 115.553 135.516 115.581 135.488 115.609C135.451 115.655 135.404 115.655 135.349 115.627C135.33 115.627 135.321 115.609 135.302 115.609C135.209 115.581 135.172 115.516 135.154 115.432C135.145 115.368 135.145 115.303 135.126 115.238C135.126 115.191 135.145 115.135 135.154 115.089C135.172 115.024 135.191 114.959 135.219 114.903C135.228 114.866 135.247 114.829 135.274 114.801C135.358 114.709 135.395 114.597 135.442 114.477C135.46 114.421 135.479 114.365 135.497 114.31C135.488 114.291 135.469 114.291 135.46 114.31C135.377 114.365 135.293 114.402 135.228 114.486C135.219 114.504 135.2 114.523 135.172 114.532C135.07 114.579 134.968 114.634 134.866 114.681C134.838 114.69 134.801 114.699 134.764 114.699C134.551 114.727 134.356 114.653 134.161 114.569C134.031 114.514 133.947 114.421 133.892 114.291C133.882 114.263 133.864 114.245 133.855 114.217C133.817 114.152 133.808 114.087 133.808 114.013C133.808 113.957 133.845 113.91 133.892 113.883C133.938 113.855 133.975 113.827 134.022 113.799V113.66C134.022 113.66 134.068 113.66 134.087 113.66C134.151 113.688 134.216 113.716 134.281 113.734C134.356 113.762 134.421 113.753 134.486 113.725C134.597 113.669 134.708 113.623 134.81 113.567C135.015 113.446 135.219 113.307 135.432 113.177C135.414 113.149 135.414 113.131 135.395 113.112C135.339 113.047 135.284 112.992 135.228 112.936C135.135 112.852 135.07 112.741 135.005 112.639C134.996 112.62 134.996 112.593 134.987 112.574C134.987 112.555 134.987 112.528 134.977 112.5C135.005 112.5 135.024 112.5 135.061 112.481C135.052 112.453 135.042 112.435 135.024 112.398C135.07 112.398 135.117 112.398 135.154 112.416C135.386 112.472 135.59 112.574 135.757 112.76C135.785 112.787 135.794 112.815 135.822 112.843C135.859 112.88 135.887 112.908 135.924 112.936C136.035 112.899 136.138 112.862 136.24 112.834C136.323 112.806 136.407 112.797 136.49 112.778C136.555 112.769 136.62 112.76 136.685 112.76C136.75 112.76 136.815 112.76 136.88 112.778C136.982 112.797 137.066 112.843 137.14 112.908C137.14 112.936 137.131 112.964 137.121 112.992C137.121 113.047 137.084 113.094 137.047 113.131C136.973 113.196 136.917 113.289 136.861 113.372C136.787 113.493 136.722 113.623 136.62 113.716C136.564 113.771 136.499 113.827 136.425 113.883C136.444 113.994 136.499 114.096 136.546 114.189C136.564 114.226 136.592 114.272 136.648 114.291C136.667 114.282 136.704 114.263 136.722 114.245C136.787 114.189 136.871 114.161 136.954 114.152C137.038 114.152 137.112 114.152 137.186 114.189C137.233 114.207 137.251 114.235 137.251 114.291C137.251 114.337 137.251 114.374 137.242 114.412C137.196 114.514 137.093 114.56 137.019 114.625C137.019 114.625 137.001 114.625 136.991 114.634C136.926 114.662 136.908 114.699 136.936 114.755C136.964 114.82 136.991 114.876 137.019 114.941C137.056 115.024 137.093 115.108 137.131 115.182C137.196 115.321 137.233 115.47 137.335 115.59C137.335 115.59 137.353 115.609 137.353 115.618C137.39 115.767 137.483 115.887 137.548 116.017C137.595 116.101 137.65 116.175 137.697 116.258C137.743 116.342 137.771 116.435 137.799 116.518C137.854 116.676 137.892 116.843 137.929 117.001C137.929 117.029 137.947 117.066 137.947 117.094C137.947 117.233 137.947 117.363 137.929 117.502C137.929 117.539 137.901 117.567 137.873 117.586C137.817 117.623 137.78 117.66 137.734 117.706C137.697 117.706 137.66 117.706 137.613 117.706C137.567 117.706 137.53 117.706 137.483 117.688C137.418 117.678 137.344 117.66 137.251 117.641C137.121 117.511 137.001 117.344 136.88 117.177C136.815 117.149 136.75 117.122 136.685 117.094C136.546 117.047 136.397 117.01 136.249 116.992C136.128 116.973 135.998 116.954 135.878 116.936C135.748 116.917 135.618 116.899 135.488 116.908C135.46 116.908 135.432 116.908 135.404 116.908C135.228 116.945 135.07 116.908 134.913 116.843C134.792 116.787 134.653 116.75 134.523 116.713C134.504 116.713 134.495 116.713 134.476 116.713C134.476 116.741 134.458 116.76 134.448 116.778C134.43 116.927 134.448 117.066 134.513 117.205C134.588 117.372 134.69 117.511 134.829 117.641C134.913 117.716 134.996 117.799 135.07 117.873C135.209 118.003 135.358 118.105 135.516 118.198C135.618 118.254 135.72 118.319 135.822 118.374C135.831 118.374 135.85 118.393 135.859 118.402C135.878 118.421 135.878 118.458 135.859 118.467C135.822 118.486 135.785 118.495 135.748 118.504C135.664 118.504 135.581 118.504 135.497 118.477C135.145 118.365 134.838 118.17 134.569 117.91C134.458 117.808 134.346 117.706 134.244 117.604C134.161 117.521 134.087 117.437 134.022 117.354C133.919 117.224 133.892 117.075 133.901 116.908C133.901 116.88 133.919 116.843 133.919 116.815C133.938 116.75 133.975 116.704 134.04 116.676C134.105 116.648 134.179 116.63 134.254 116.602C134.3 116.583 134.346 116.574 134.393 116.565C134.421 116.565 134.448 116.555 134.476 116.555C134.569 116.555 134.653 116.555 134.745 116.555C134.94 116.555 135.135 116.574 135.33 116.611C135.553 116.648 135.776 116.676 136.008 116.676C136.24 116.676 136.472 116.676 136.704 116.676C136.732 116.676 136.769 116.676 136.806 116.676C136.806 116.648 136.824 116.63 136.815 116.611C136.815 116.49 136.796 116.37 136.787 116.249C136.787 116.203 136.769 116.156 136.75 116.11C136.685 115.934 136.62 115.767 136.564 115.59C136.518 115.451 136.462 115.312 136.416 115.173C136.416 115.154 136.397 115.126 136.388 115.098L136.425 115.135ZM136.23 114.625C136.175 114.449 136.119 114.347 136.045 114.282C135.841 114.449 135.822 114.458 135.701 114.792C135.674 114.866 135.664 114.922 135.683 114.996C135.906 114.922 136.054 114.755 136.24 114.625H136.23Z" fill="#A22124"/>
</g>
<defs>
<clipPath id="clip0_938_1332">
<rect width="185" height="185" fill="white"/>
</clipPath>
</defs>
</svg>
