<svg width="39" height="39" viewBox="0 0 39 39" fill="none" xmlns="http://www.w3.org/2000/svg">
<rect width="39" height="39" rx="19.5" fill="black"/>
<path d="M27.197 13.9304C27.197 14.6594 26.606 15.2504 25.8773 15.2504C25.1484 15.2504 24.5576 14.6594 24.5576 13.9304C24.5576 13.2012 25.1484 12.6104 25.8773 12.6104C26.606 12.6104 27.197 13.2012 27.197 13.9304Z" fill="white"/>
<path d="M30.9391 15.264C30.8876 14.095 30.6987 13.2914 30.4277 12.595C30.1483 11.8559 29.7186 11.194 29.1554 10.6439C28.6051 10.0852 27.9389 9.65107 27.208 9.37609C26.5076 9.1053 25.708 8.91627 24.5387 8.86473C23.3608 8.80882 22.9869 8.7959 19.9994 8.7959C17.0119 8.7959 16.638 8.80882 15.4645 8.86037C14.2953 8.9119 13.4915 9.1011 12.7951 9.37173C12.0557 9.65107 11.3937 10.0809 10.8435 10.6439C10.2847 11.194 9.85063 11.8602 9.57543 12.5908C9.30458 13.2914 9.11552 14.0906 9.06397 15.2596C9.00805 16.4373 8.99512 16.8112 8.99512 19.7981C8.99512 22.7849 9.00805 23.1588 9.0596 24.3322C9.11115 25.501 9.30039 26.3047 9.57122 27.0011C9.85063 27.7402 10.2847 28.4021 10.8435 28.9522C11.3937 29.5109 12.06 29.945 12.7907 30.22C13.4915 30.4908 14.2909 30.6798 15.4602 30.7313C16.6336 30.783 17.0077 30.7958 19.9952 30.7958C22.9827 30.7958 23.3566 30.783 24.5302 30.7313C25.6994 30.6798 26.5032 30.4908 27.1995 30.22C28.6783 29.6484 29.8474 28.4794 30.4192 27.0011C30.6899 26.3005 30.8791 25.501 30.9307 24.3322C30.9821 23.1588 30.9951 22.7849 30.9951 19.7981C30.9951 16.8112 30.9907 16.4373 30.9391 15.264ZM28.9576 24.2462C28.9104 25.3206 28.7299 25.9008 28.5794 26.2875C28.2096 27.246 27.4488 28.0066 26.4903 28.3763C26.1033 28.5268 25.5189 28.7072 24.4484 28.7544C23.2879 28.8061 22.9397 28.8189 20.0037 28.8189C17.0678 28.8189 16.7154 28.8061 15.559 28.7544C14.4844 28.7072 13.904 28.5268 13.5171 28.3763C13.0401 28.2001 12.6059 27.9207 12.2535 27.5554C11.8881 27.1987 11.6087 26.7689 11.4324 26.2919C11.2819 25.9052 11.1014 25.3206 11.0542 24.2506C11.0025 23.0902 10.9897 22.742 10.9897 19.8066C10.9897 16.8712 11.0025 16.5189 11.0542 15.3628C11.1014 14.2884 11.2819 13.7082 11.4324 13.3214C11.6087 12.8443 11.8881 12.4104 12.2578 12.0578C12.6145 11.6925 13.0444 11.4131 13.5215 11.237C13.9084 11.0866 14.4931 10.9061 15.5633 10.8588C16.7239 10.8073 17.0722 10.7943 20.0079 10.7943C22.9483 10.7943 23.2964 10.8073 24.4528 10.8588C25.5273 10.9061 26.1077 11.0866 26.4946 11.237C26.9715 11.4131 27.4059 11.6925 27.7583 12.0578C28.1237 12.4146 28.403 12.8443 28.5794 13.3214C28.7299 13.7082 28.9104 14.2926 28.9576 15.3628C29.0092 16.5232 29.0222 16.8712 29.0222 19.8066C29.0222 22.742 29.0092 23.0858 28.9576 24.2462Z" fill="white"/>
<path d="M19.9992 14.1455C16.8787 14.1455 14.3467 16.6768 14.3467 19.797C14.3467 22.9173 16.8787 25.4485 19.9992 25.4485C23.1201 25.4485 25.6519 22.9173 25.6519 19.797C25.6519 16.6768 23.1201 14.1455 19.9992 14.1455ZM19.9992 23.463C17.9747 23.463 16.3326 21.8213 16.3326 19.797C16.3326 17.7728 17.9747 16.131 19.9992 16.131C22.024 16.131 23.666 17.7728 23.666 19.797C23.666 21.8213 22.024 23.463 19.9992 23.463Z" fill="white"/>
</svg>
