<svg width="263" height="51" viewBox="0 0 263 51" fill="none" xmlns="http://www.w3.org/2000/svg">
<path d="M14.8681 20.9519C20.1721 17.7799 45.7561 3.11587 48.7721 2.64787L49.2921 3.01187L49.1361 3.53187C48.7721 3.79187 48.3561 3.94787 47.9921 4.15587C36.5001 9.92787 25.3201 16.2199 14.5041 23.1879C15.9601 25.3199 18.0401 27.3999 19.8081 29.3239C26.7241 36.8639 27.8161 37.4879 37.8001 38.8399L38.0081 38.9959C36.8121 39.7759 35.4601 40.0879 34.0561 40.0879C22.9281 40.0879 15.2841 24.4359 12.9441 24.3319C11.8001 24.7479 4.78012 37.0719 3.74012 38.9959C3.11612 40.1399 2.75212 41.6479 1.86812 42.5839L1.08812 42.6879L0.724121 42.0119C2.18012 35.9799 23.6041 4.15587 26.2041 3.99987C26.4641 4.05187 26.8281 4.36387 26.8281 4.62387C26.8281 4.83187 26.4641 5.14387 26.3601 5.29987C22.6681 9.35587 17.2601 16.1159 14.8681 20.9519Z" fill="#B48B34"/>
<path d="M52.5726 23.1359L52.7286 23.2919C49.1406 26.7759 37.8046 28.2319 38.1166 23.7079C38.3246 20.7959 44.8246 17.4679 47.7886 17.6759C48.5166 17.6759 49.2966 18.0919 49.2446 18.8719C49.0886 20.7959 42.5366 22.4079 40.6646 22.5639C40.3006 22.6159 40.0926 22.7199 39.9366 22.9279C39.2086 23.9159 39.9886 24.6439 40.8726 24.8519C43.0566 25.4239 47.9446 24.9039 52.5726 23.1359ZM42.6406 21.1599L47.3206 19.4959C45.8126 18.8719 43.7326 19.9119 42.6406 21.1599Z" fill="#B48B34"/>
<path d="M61.7051 23.1359C61.2891 24.8519 62.4331 25.0079 67.8931 23.4479C65.9691 25.0079 60.3011 27.5559 60.3011 23.5519C60.3011 22.6679 60.5091 21.7319 60.6131 20.8479C57.1811 22.1479 54.1651 24.2279 51.4611 26.6719C51.1491 26.9319 50.9411 27.2439 50.5771 27.3999L49.7971 27.2439V26.5679C51.5131 23.7599 54.7371 20.4319 57.1291 18.1439C57.3371 18.3519 57.5451 18.5599 57.5451 18.8719C57.5451 19.2359 55.9851 21.0559 55.6731 21.4719L55.8291 21.6799C57.0251 21.1599 59.4171 19.6519 60.6651 19.6519C62.5891 19.6519 61.9651 22.1479 61.7051 23.1359Z" fill="#B48B34"/>
<path d="M65.6035 28.2839C68.5155 26.4119 71.3755 24.3839 74.6515 23.1879C70.9075 25.9959 67.0075 28.9079 63.4715 31.9759C58.8435 35.9799 54.6315 44.1439 49.7955 48.8759C49.2235 49.4479 47.9235 50.5919 47.1435 50.5919C46.5715 50.5919 46.0515 50.1239 46.0515 49.6039C46.0515 45.5479 59.5715 34.6279 62.2235 30.8839C64.9275 27.0359 67.5795 23.1359 70.1275 19.1839C70.2835 18.9759 70.5955 18.2999 70.9075 18.2999C71.2195 18.2999 71.6355 18.5079 71.6355 18.8199C69.6075 21.9919 67.6315 25.1639 65.6035 28.2839ZM55.9315 39.3599C53.9035 41.0239 49.3275 45.8079 48.3915 48.2519C51.1995 45.5479 53.5915 42.4279 55.9315 39.3599ZM73.6115 14.5559L73.1435 14.7639L72.7275 14.5039L72.6755 13.8279C73.1955 13.1519 73.7675 12.5279 74.3915 11.9039L75.0155 11.8519L75.1715 12.4759C74.7035 13.2039 74.1315 13.8799 73.6115 14.5559Z" fill="#B48B34"/>
<path d="M79.0195 18.7679C77.1475 20.8479 75.2235 22.8759 74.2875 25.5279C74.5995 25.6839 74.9115 25.7879 75.2235 25.7879C76.6795 25.7879 81.0475 23.9679 83.1275 23.2919C81.6195 25.4759 77.6155 26.9839 74.9635 26.9839C74.0275 26.9839 73.1955 26.3079 73.1955 25.3199C73.1955 23.9159 76.6795 18.2479 77.9275 18.2479C78.2915 18.2479 78.7075 18.7159 79.0195 18.7679ZM81.6195 13.4119L82.1395 13.8279C81.6195 15.2839 80.5795 16.1679 79.6435 16.9999L79.1235 16.7919L79.0715 16.1159C79.9035 15.1279 80.7355 14.2959 81.6195 13.4119Z" fill="#B48B34"/>
<path d="M105.224 29.0119L105.38 29.1679C109.748 24.4359 127.74 6.07987 134.396 6.07987C135.228 6.07987 135.852 6.75587 135.852 7.58787C135.852 13.1519 120.46 33.8479 120.46 40.4519C120.46 41.2839 120.824 42.0639 121.448 42.5839C121.188 42.9999 120.772 43.5719 120.252 43.5719C119.212 43.5719 118.64 41.7519 118.64 40.9719C118.64 34.8359 128.624 18.9239 131.848 13.3079C132.888 11.5399 133.928 9.87587 134.448 7.84787C134.188 7.69187 133.928 7.58787 133.616 7.58787C133.512 7.58787 132.888 7.79587 132.732 7.84787C122.228 11.6959 109.956 27.7119 101.636 35.3559L100.856 35.4599L100.44 34.6279C101.272 30.6239 113.128 15.4399 115.26 7.89987C109.852 8.21187 103.664 14.2439 99.5042 17.3639L98.7242 17.8839L98.3602 17.2079C99.3482 14.1919 111.412 6.49587 114.584 6.49587C115.572 6.49587 116.456 6.85987 116.456 8.00387C116.456 12.5279 107.512 24.2799 105.224 29.0119Z" fill="#B48B34"/>
<path d="M146.046 18.9759C146.514 18.8719 146.878 18.2999 147.294 18.2999C147.502 18.2999 147.814 18.5599 147.918 18.7159C146.618 20.8479 144.538 22.0959 144.382 24.8519C146.93 24.6959 149.582 23.1879 151.922 23.1879L152.494 23.2399C150.882 24.6959 147.346 26.1519 145.162 26.1519C143.966 26.1519 143.238 25.5799 143.238 24.3319C143.238 23.6559 143.55 22.9799 143.498 22.3039C141.47 23.1879 137.622 25.6839 135.594 25.6839C134.866 25.6839 134.294 25.1639 134.294 24.4359C134.294 21.2639 140.898 17.7279 143.758 17.7279C144.694 17.7279 145.578 18.0919 146.046 18.9759ZM144.694 19.5999C144.33 19.4959 143.966 19.4959 143.602 19.4959C140.95 19.4959 136.946 21.5239 136.114 24.1759C139.182 23.1359 141.99 21.4199 144.694 19.5999Z" fill="#B48B34"/>
<path d="M151.091 26.5159L150.727 25.7359C151.247 24.4879 152.859 21.2639 153.639 20.2239C155.927 19.2359 167.731 0.671873 169.343 0.567871L169.759 0.82787L169.811 1.29587C169.811 1.45187 169.759 1.71187 169.759 1.86787C168.511 3.73987 166.795 5.03987 165.547 6.80787C162.531 10.7079 159.567 14.6079 156.863 18.6639C157.799 18.2999 166.223 15.1279 166.379 15.1279C166.691 15.1279 167.055 15.5439 167.159 15.7519C163.467 17.6239 159.515 19.1319 155.771 20.8479C160.035 24.6439 160.295 25.4759 165.755 26.9839C165.183 27.5039 164.611 27.8679 163.831 27.8679C161.179 27.8679 156.863 23.5519 154.679 21.8879C153.275 23.2919 152.547 25.1639 151.091 26.5159Z" fill="#B48B34"/>
<path d="M180.374 18.9759C180.842 18.8719 181.206 18.2999 181.622 18.2999C181.83 18.2999 182.142 18.5599 182.246 18.7159C180.946 20.8479 178.866 22.0959 178.71 24.8519C181.258 24.6959 183.91 23.1879 186.25 23.1879L186.822 23.2399C185.21 24.6959 181.674 26.1519 179.49 26.1519C178.294 26.1519 177.566 25.5799 177.566 24.3319C177.566 23.6559 177.878 22.9799 177.826 22.3039C175.798 23.1879 171.95 25.6839 169.922 25.6839C169.194 25.6839 168.622 25.1639 168.622 24.4359C168.622 21.2639 175.226 17.7279 178.086 17.7279C179.022 17.7279 179.906 18.0919 180.374 18.9759ZM179.022 19.5999C178.658 19.4959 178.294 19.4959 177.93 19.4959C175.278 19.4959 171.274 21.5239 170.442 24.1759C173.51 23.1359 176.318 21.4199 179.022 19.5999Z" fill="#B48B34"/>
<path d="M204.764 23.2919L204.972 23.5519C203.776 25.0599 199.408 28.0239 197.64 29.1679C197.224 29.4279 196.86 29.7399 196.444 30.0519C190.672 36.5519 183.236 47.6799 178.712 47.6799C178.14 47.6799 177.516 47.3159 177.516 46.6399C177.516 40.0359 194.78 29.6879 196.652 26.2559C198.108 23.5519 199.876 20.9519 200.656 17.9879L200.396 17.7279C197.952 18.8719 189.008 24.7479 187.344 24.7479C186.668 24.7479 186.148 24.1239 186.148 23.4479C186.148 22.3039 188.696 19.4959 189.476 18.5079L190.464 18.4559C189.528 20.1199 187.916 21.3679 187.448 23.2399C187.552 23.3439 187.656 23.3439 187.812 23.3439C189.372 23.3439 198.368 16.6879 200.396 16.6879C201.228 16.6879 201.8 17.4679 201.8 18.2479C201.8 19.4439 200.032 23.1359 198.004 27.4519C200.292 26.0999 202.528 24.6959 204.764 23.2919ZM192.752 31.7679C188.696 34.3679 180.636 41.6479 178.92 46.1199C182.612 44.9239 190.932 35.3039 192.752 31.7679Z" fill="#B48B34"/>
<path d="M215.768 18.9759C216.236 18.8719 216.6 18.2999 217.016 18.2999C217.224 18.2999 217.537 18.5599 217.641 18.7159C216.341 20.8479 214.26 22.0959 214.104 24.8519C216.652 24.6959 219.305 23.1879 221.645 23.1879L222.216 23.2399C220.604 24.6959 217.068 26.1519 214.884 26.1519C213.688 26.1519 212.96 25.5799 212.96 24.3319C212.96 23.6559 213.273 22.9799 213.221 22.3039C211.193 23.1879 207.344 25.6839 205.316 25.6839C204.588 25.6839 204.016 25.1639 204.016 24.4359C204.016 21.2639 210.62 17.7279 213.48 17.7279C214.416 17.7279 215.3 18.0919 215.768 18.9759ZM214.417 19.5999C214.053 19.4959 213.688 19.4959 213.324 19.4959C210.672 19.4959 206.669 21.5239 205.837 24.1759C208.905 23.1359 211.713 21.4199 214.417 19.5999Z" fill="#B48B34"/>
<path d="M231.37 17.9879L231.058 17.7279C228.406 19.6519 218.37 28.9599 218.37 28.9599L217.85 28.6999C217.798 28.5959 217.694 28.4399 217.694 28.3359C217.694 27.8159 226.586 17.1559 227.73 16.0639C227.834 16.3239 227.886 16.5839 227.886 16.7919C227.886 17.4159 226.222 19.2879 225.91 20.1199C227.366 19.2879 230.278 16.1679 231.786 16.1679C232.254 16.1679 232.67 16.6359 232.67 17.1039C232.67 18.4559 230.018 23.2399 229.238 24.7999C231.37 23.8119 236.466 19.1839 238.026 19.1839C238.702 19.1839 239.066 19.8079 239.066 20.4839C239.066 21.9919 237.246 24.0199 237.142 25.5799C239.638 25.4239 242.29 23.6559 245.254 23.0319C243.226 24.7479 238.494 27.0359 237.194 27.0359C236.258 27.0359 235.842 26.0999 235.842 25.2679C235.842 23.7599 237.454 21.8879 237.714 20.4319C235.998 21.5239 230.59 26.0999 229.082 26.0999C228.51 26.0999 228.25 25.7359 228.25 25.1119C228.25 23.5519 230.694 19.7039 231.37 17.9879Z" fill="#B48B34"/>
<path d="M255.936 18.9759C256.404 18.8719 256.768 18.2999 257.184 18.2999C257.392 18.2999 257.704 18.5599 257.808 18.7159C256.508 20.8479 254.428 22.0959 254.272 24.8519C256.82 24.6959 259.472 23.1879 261.812 23.1879L262.384 23.2399C260.772 24.6959 257.236 26.1519 255.052 26.1519C253.856 26.1519 253.128 25.5799 253.128 24.3319C253.128 23.6559 253.44 22.9799 253.388 22.3039C251.36 23.1879 247.512 25.6839 245.484 25.6839C244.756 25.6839 244.184 25.1639 244.184 24.4359C244.184 21.2639 250.788 17.7279 253.648 17.7279C254.584 17.7279 255.468 18.0919 255.936 18.9759ZM254.584 19.5999C254.22 19.4959 253.856 19.4959 253.492 19.4959C250.84 19.4959 246.836 21.5239 246.004 24.1759C249.072 23.1359 251.88 21.4199 254.584 19.5999Z" fill="#B48B34"/>
</svg>
