<svg width="158" height="159" viewBox="0 0 158 159" fill="none" xmlns="http://www.w3.org/2000/svg">
<path d="M120.138 16.8214C152.236 30.4507 160.015 61.4927 142.924 90.9592C133.127 107.849 118.805 124.947 102.4 135.624C82.336 148.684 54.9668 154.289 33.3774 141.744C-16.9252 112.531 13.0976 18.6623 65.3349 9.28145C83.1846 6.0417 103.517 9.76291 120.138 16.8214Z" fill="#1C9C38"/>
<path d="M81.5938 105C92.7398 103.862 93.7274 97.1037 93.7274 97.1037C108.655 99.2409 115.737 88.8744 115.991 81.783C116.217 75.3855 112.097 67.9333 105.099 65.6435C103.872 65.2411 102.983 64.1725 102.813 62.9097C101.953 56.4705 92.4435 47.2975 78.9131 52.5709C78.391 52.7791 77.8408 52.8901 77.2764 52.8901H75.7104C75.146 52.8901 74.5958 52.7791 74.0737 52.5709C60.4305 47.2559 50.8929 56.6093 50.1592 63.0623C50.0181 64.2419 49.228 65.2272 48.0852 65.588C40.9743 67.7945 36.7699 75.3161 37.0097 81.783C37.2637 88.8744 44.3464 99.227 59.2735 97.1037C59.2735 97.1037 62.0248 102.627 70.9839 104.528" stroke="white" stroke-width="4" stroke-linecap="round" stroke-linejoin="round"/>
<path d="M66.125 87.804C60.2331 87.804 56.7207 82.8611 56.7207 78.2864C56.7207 73.7118 60.2473 68.6981 66.125 68.6981C70.1756 68.6981 73.079 71.3607 73.079 72.2247C73.079 72.6212 72.7816 73.2444 72.0593 73.2444C71.0254 73.2444 70.0056 70.7517 66.125 70.7517C61.522 70.7517 58.7602 74.6324 58.7602 78.2581C58.7602 81.8839 61.522 85.7645 66.125 85.7645C70.0056 85.7645 71.0254 83.2718 72.0593 83.2718C72.4417 83.2718 73.079 83.5693 73.079 84.2916C73.079 85.1272 70.1898 87.8182 66.125 87.8182V87.804Z" fill="white"/>
<path fill-rule="evenodd" clip-rule="evenodd" d="M66.625 87.8046C70.4247 87.598 73.079 85.0925 73.079 84.2916C73.079 83.5693 72.4417 83.2718 72.0593 83.2718C71.7073 83.2718 71.357 83.5607 70.8948 83.9418C69.9995 84.6802 68.6845 85.7645 66.125 85.7645C61.522 85.7645 58.7602 81.8839 58.7602 78.2581C58.7602 74.6324 61.522 70.7517 66.125 70.7517C68.6845 70.7517 69.9995 71.8361 70.8948 72.5744C71.357 72.9555 71.7073 73.2444 72.0593 73.2444C72.7816 73.2444 73.079 72.6212 73.079 72.2247C73.079 71.3607 70.1756 68.6981 66.125 68.6981C60.2473 68.6981 56.7207 73.7118 56.7207 78.2864C56.7207 82.8611 60.2331 87.804 66.125 87.804V87.8182C66.2937 87.8182 66.4604 87.8135 66.625 87.8046ZM65.625 88.2926V88.3182H66.125C68.2675 88.3182 70.0973 87.6096 71.3933 86.791C72.041 86.3818 72.5657 85.9388 72.9349 85.5305C73.1191 85.3268 73.2722 85.1234 73.382 84.9294C73.4854 84.7467 73.579 84.5232 73.579 84.2916C73.579 83.7633 73.3382 83.3694 73.0237 83.1194C72.7261 82.8829 72.361 82.7718 72.0593 82.7718C71.6119 82.7718 71.2312 83.0369 70.9354 83.2661C70.8019 83.3695 70.6782 83.4717 70.5521 83.576C70.3479 83.7449 70.1373 83.919 69.8683 84.1118C69.0658 84.6871 67.9404 85.2645 66.125 85.2645C61.8517 85.2645 59.2602 81.6645 59.2602 78.2581C59.2602 74.8518 61.8517 71.2517 66.125 71.2517C67.9404 71.2517 69.0658 71.8291 69.8683 72.4044C70.1373 72.5972 70.3479 72.7714 70.5521 72.9402C70.6782 73.0445 70.8019 73.1467 70.9354 73.2502C71.2312 73.4794 71.6119 73.7444 72.0593 73.7444C72.5834 73.7444 72.9778 73.5107 73.2301 73.196C73.4692 72.8978 73.579 72.5313 73.579 72.2247C73.579 71.9917 73.4869 71.7666 73.3823 71.5803C73.2719 71.3836 73.118 71.1786 72.933 70.9739C72.5621 70.5636 72.0356 70.1212 71.3869 69.7139C70.0888 68.8989 68.2594 68.1981 66.125 68.1981C59.9158 68.1981 56.2207 73.4945 56.2207 78.2864C56.2207 82.9527 59.7084 88.0214 65.625 88.2926Z" fill="white"/>
<path d="M82.6387 87.804C77.37 87.804 73.0928 83.5126 73.0928 78.2581C73.0928 73.0036 77.3842 68.7122 82.6387 68.7122C87.8932 68.7122 92.1846 73.0036 92.1846 78.2581C92.1846 83.5126 87.8932 87.804 82.6387 87.804ZM82.6387 70.7517C78.4606 70.7517 75.1323 74.08 75.1323 78.2581C75.1323 82.4362 78.5031 85.7645 82.6387 85.7645C86.7743 85.7645 90.1451 82.3937 90.1451 78.2581C90.1451 74.1225 86.7743 70.7517 82.6387 70.7517Z" fill="white"/>
<path fill-rule="evenodd" clip-rule="evenodd" d="M82.6387 88.304C77.0934 88.304 72.5928 83.7883 72.5928 78.2581C72.5928 72.7275 77.108 68.2122 82.6387 68.2122C88.1693 68.2122 92.6846 72.7275 92.6846 78.2581C92.6846 83.7887 88.1693 88.304 82.6387 88.304ZM82.6387 71.2517C78.7367 71.2517 75.6323 74.3562 75.6323 78.2581C75.6323 82.1582 78.7774 85.2645 82.6387 85.2645C86.4981 85.2645 89.6451 82.1176 89.6451 78.2581C89.6451 74.3986 86.4981 71.2517 82.6387 71.2517ZM73.0928 78.2581C73.0928 83.5126 77.37 87.804 82.6387 87.804C87.8932 87.804 92.1846 83.5126 92.1846 78.2581C92.1846 73.0036 87.8932 68.7122 82.6387 68.7122C77.3842 68.7122 73.0928 73.0036 73.0928 78.2581ZM75.1323 78.2581C75.1323 74.08 78.4606 70.7517 82.6387 70.7517C86.7743 70.7517 90.1451 74.1225 90.1451 78.2581C90.1451 82.3937 86.7743 85.7645 82.6387 85.7645C78.5031 85.7645 75.1323 82.4362 75.1323 78.2581Z" fill="white"/>
<path fill-rule="evenodd" clip-rule="evenodd" d="M95.3331 81.3973C95.0045 81.6393 94.5037 81.6124 94.2063 81.3569C93.909 81.1014 93.9403 80.6846 94.2533 80.4425L95.114 79.8105C95.8339 79.2591 96.8199 78.9633 97.8371 79.0036C98.8387 79.044 99.7934 79.4339 100.451 80.0525C101.703 81.2359 101.577 83.0244 100.185 84.1002L96.7886 86.7225H101.202C101.635 86.7225 101.991 86.9979 102 87.3545C102 87.3567 102 87.3589 102 87.3611C102 87.3634 102 87.3657 102 87.368C101.991 87.7117 101.634 88 101.202 88H94.801C94.4724 88 94.1751 87.8386 94.0655 87.5966C93.9403 87.3545 94.0186 87.0721 94.2533 86.8973L99.0891 83.1723C99.8716 82.5672 99.9342 81.5586 99.23 80.8863C98.8544 80.5366 98.3379 80.3215 97.7589 80.2946C97.1798 80.2677 96.6321 80.4291 96.2095 80.7518L95.3331 81.3973ZM93.951 86.499C93.5528 86.798 93.3724 87.3309 93.6155 87.8147C93.8316 88.2769 94.3407 88.5 94.801 88.5H101.202C101.811 88.5 102.491 88.0775 102.5 87.368L102.5 87.3545C102.492 86.626 101.803 86.2225 101.202 86.2225H98.2542L100.49 84.496C101.289 83.8789 101.749 83.0357 101.808 82.1502C101.868 81.2627 101.522 80.3769 100.794 79.6892L100.793 79.6884C100.041 78.9804 98.9688 78.5488 97.8573 78.504C96.7383 78.4597 95.6362 78.7826 94.8142 79.4103L93.9574 80.0395L93.9474 80.047C93.6861 80.249 93.5208 80.5431 93.5018 80.8653C93.4826 81.192 93.617 81.5097 93.8805 81.7362C94.3521 82.1414 95.1109 82.182 95.6297 81.7999L96.5061 81.1544L96.513 81.1492C96.8332 80.9046 97.2625 80.7721 97.7357 80.794C98.2041 80.8158 98.6045 80.9882 98.887 81.2501C99.1382 81.491 99.2337 81.7696 99.218 82.0237C99.2022 82.2795 99.0707 82.5543 98.7836 82.7765C98.7835 82.7766 98.7837 82.7764 98.7836 82.7765L93.951 86.499ZM102 87.368L102 87.3545C102 87.3567 102 87.3589 102 87.3611C102 87.3634 102 87.3657 102 87.368Z" fill="white"/>
<path d="M83.77 101L81 105.934L85 109" stroke="white" stroke-width="4" stroke-linecap="round" stroke-linejoin="round"/>
</svg>
