<svg width="158" height="160" viewBox="0 0 158 160" fill="none" xmlns="http://www.w3.org/2000/svg">
<path d="M120.138 17.512C152.236 31.1414 160.015 62.1834 142.924 91.6498C133.127 108.539 118.805 125.638 102.4 136.314C82.336 149.375 54.9668 154.98 33.3774 142.435C-16.9252 113.222 13.0976 19.353 65.3349 9.97214C83.1846 6.73239 103.517 10.4536 120.138 17.512Z" fill="#1C9C38"/>
<path d="M69.0684 45.3795C74.2503 37.1205 86.6301 35.5594 96.5774 41.8879L102.043 45.3795C111.99 51.708 115.889 63.6432 110.707 71.9021L100.593 88.0339" stroke="white" stroke-width="4.5" stroke-linecap="round" stroke-linejoin="round"/>
<path d="M86.1525 109.865C80.8267 118.211 68.1029 119.788 57.8794 113.393L52.2624 109.865C42.0389 103.47 38.0316 91.41 43.3575 83.0644L54.1975 66.0678" stroke="white" stroke-width="4.5" stroke-linecap="round" stroke-linejoin="round"/>
<path d="M41 69.5755L53.5699 66.0678L56.8644 85.5933" stroke="white" stroke-width="4.5" stroke-linecap="round" stroke-linejoin="round"/>
<path d="M97.1357 70.9492L100.37 89.2543L111.78 86.0221" stroke="white" stroke-width="4.5" stroke-linecap="round" stroke-linejoin="round"/>
<path d="M79.8844 61.4167C79.8844 61.4167 79.6417 65.4451 80.8395 69.0629C81.4384 70.8796 82.3286 72.2856 83.0732 73.2177C83.9311 74.292 84.4167 75.6032 84.4167 76.9618V90.864C84.4167 91.4486 84.3681 92.0489 84.271 92.6334L83.2674 98.4787C83.2674 98.4787 80.6938 99 75.7083 99C70.7229 99 68.1492 98.4787 68.1492 98.4787L67.1457 92.6334C67.0486 92.0489 67 91.4644 67 90.864V76.9618C67 75.6032 67.5018 74.292 68.3435 73.2177C69.0881 72.2699 69.9945 70.8638 70.5772 69.0629C71.775 65.4293 71.5322 61.4167 71.5322 61.4167H79.8844Z" stroke="white" stroke-width="3" stroke-linecap="round" stroke-linejoin="round"/>
<path d="M79.376 61.4167H72.0413C71.2795 61.4167 70.667 60.7903 70.667 60.0111L71.0255 56.4056C71.0255 55.6264 71.638 55 72.3998 55H79.0025C79.7644 55 80.3769 55.6264 80.3769 56.4056L80.7503 60.0111C80.7503 60.7903 80.1379 61.4167 79.376 61.4167Z" stroke="white" stroke-width="3" stroke-linecap="round" stroke-linejoin="round"/>
<path d="M67 77.9167C67 77.9167 68.7142 79.75 75.6841 79.75C82.654 79.75 84.4167 77.9167 84.4167 77.9167" stroke="white" stroke-width="3" stroke-linecap="round" stroke-linejoin="round"/>
</svg>
