<svg width="158" height="159" viewBox="0 0 158 159" fill="none" xmlns="http://www.w3.org/2000/svg">
<path d="M120.138 16.8214C152.236 30.4507 160.015 61.4928 142.924 90.9592C133.127 107.849 118.805 124.947 102.4 135.624C82.336 148.684 54.9668 154.289 33.3774 141.744C-16.9252 112.531 13.0976 18.6623 65.3349 9.28148C83.1846 6.04173 103.517 9.76294 120.138 16.8214Z" fill="#1C9C38"/>
<path d="M84.6636 42.2324C82.2149 44.6667 80.7745 47.389 80.328 49.8809C79.8815 52.3728 80.4432 54.663 82.0133 56.233C83.4248 57.6446 85.4126 58.2496 87.6308 58.0335C90.3243 57.7742 93.3347 56.305 96.0139 53.6259C97.3822 52.2719 98.5778 50.5003 99.5428 48.6133C101.775 44.249 102.813 39.1212 101.934 36.3556C97.5551 35.0449 89.4745 37.4359 84.6492 42.2468L84.6636 42.2324Z" stroke="white" stroke-width="3.5" stroke-linecap="round" stroke-linejoin="round"/>
<path d="M49 93.5823H54.243C55.6834 93.5823 57.023 92.7469 57.5847 91.4218C58.5498 89.1171 60.8688 85.6746 66.2415 84.8536C74.5093 83.586 76.9292 79.913 80.1413 79.913C83.3533 79.913 84.8513 85.545 79.2194 88.757C73.5875 91.9691 72.4352 95.0803 76.4683 97.2553C81.0919 99.7616 89.7919 98.4797 91.6356 94.9795C92.6007 93.1502 93.8106 91.4362 95.539 90.2983C103.346 85.084 107.595 87.5471 106.933 90.255C106.515 91.9691 95.0925 103.809 92.2262 105.538C89.3598 107.266 81.6537 110.363 77.4045 110.593C73.1554 110.824 53.6093 110.593 53.6093 110.593" stroke="white" stroke-width="3.5" stroke-linecap="round" stroke-linejoin="round"/>
<path d="M94.9348 82.5777C94.9348 75.5342 89.2308 69.8302 82.1873 69.8302C77.9814 69.8302 74.2651 71.8756 71.9461 75.0156C70.765 74.6555 69.5263 74.4683 68.2443 74.4683C62.4539 74.4683 57.5566 78.3429 56.001 83.6292" stroke="white" stroke-width="3.5" stroke-linecap="round" stroke-linejoin="round"/>
<path d="M82.0124 56.2328C82.0124 56.2328 76.7261 63.9678 77.9793 69.6717" stroke="white" stroke-width="3.5" stroke-linecap="round" stroke-linejoin="round"/>
<path d="M77.7079 66.4166C77.7079 66.4166 78.0968 63.6367 77.0886 61.5049C76.8005 60.9143 75.4609 59.0274 71.8888 58.8978C69.4401 58.7105 66.833 56.7084 65.335 54.3317C62.8431 50.4139 63.8802 45.4589 66.012 42.2469C69.9874 42.1316 74.6399 43.2551 76.8149 47.029" stroke="white" stroke-width="3.5" stroke-linecap="round" stroke-linejoin="round"/>
<path d="M101.949 36.3412C101.949 36.3412 86.5656 51.883 82.0283 56.2186" stroke="white" stroke-width="3.5" stroke-linecap="round" stroke-linejoin="round"/>
<path d="M65.9971 42.2468L73.4583 53.4674" stroke="white" stroke-width="3.5" stroke-linecap="round" stroke-linejoin="round"/>
</svg>
